<svg width="278" height="273" viewBox="0 0 278 273" fill="none" xmlns="http://www.w3.org/2000/svg">
<path fill-rule="evenodd" clip-rule="evenodd" d="M170.321 72.0945C173.686 69.7478 175.65 65.5407 177.594 61.3763C177.887 60.75 178.179 60.1249 178.475 59.5071C178.673 59.0934 178.89 58.667 179.111 58.2324V58.2321C179.695 57.0837 180.307 55.8772 180.69 54.6959C180.857 54.1792 181.002 53.4212 181.148 52.6551C181.32 51.7515 181.494 50.8366 181.711 50.2948C182.183 49.1111 185.771 48.5724 188.214 48.2056C189.021 48.0844 189.704 47.9821 190.108 47.881C194.402 46.8105 199.535 46.1683 203.045 50.3451C203.879 51.3378 204.813 52.2534 205.751 53.1721C206.875 54.2733 208.004 55.3791 208.97 56.6274C210.521 58.6322 212.609 62.0045 213.346 64.6828C209.565 65.588 203.284 68.3608 201.778 73.2894C196.236 66.9699 193.897 77.4956 192.67 83.0188C192.595 83.3557 192.524 83.6745 192.457 83.9692C189.439 82.3468 189.596 77.4097 189.711 73.7944V73.794C189.727 73.2874 189.742 72.8072 189.748 72.3652C189.756 71.7099 189.836 71.0271 189.914 70.3609C190.176 68.1276 190.416 66.0833 187.848 65.9032C185.356 65.7293 182.937 66.9897 180.69 68.1698C177.886 69.6428 174.945 71.8458 172.681 74.3766L170.321 72.0945ZM164.876 62.2497C164.875 62.3698 164.874 62.4894 164.873 62.6091C164.864 63.6739 164.856 64.7351 165.116 65.7615C165.267 66.3549 165.269 67.2224 165.271 68.0556C165.273 68.6594 165.275 69.2454 165.333 69.6959C162.899 68.7756 158.377 67.4103 155.892 68.6516C153.517 69.838 153.218 75.3251 153.134 77.9941C153.113 78.6684 153.189 79.4783 153.268 80.3188C153.402 81.7453 153.544 83.2608 153.234 84.3566C152.995 85.2013 153.003 85.4511 153.019 85.5119C152.978 85.4821 152.791 85.4732 152.109 86.0855C151.804 86.3578 151.473 86.5747 151.14 86.7924C150.744 87.0519 150.345 87.313 149.987 87.6716C149.034 88.6263 148.709 89.6826 148.318 90.9499C148.218 91.2767 148.113 91.618 147.991 91.9751C147.417 93.6661 145.886 95.1689 144.178 95.1077C144.395 94.6181 144.626 94.134 144.856 93.651C146.079 91.0827 147.285 88.5528 146.364 85.4957C145.554 82.8069 146.93 79.6607 148.057 77.0843L148.123 76.9333C148.192 76.7752 148.389 76.4239 148.654 75.9526C149.83 73.8541 152.339 69.3783 150.827 68.9979C149.753 68.7272 147.434 74.3018 146.576 76.3631C146.475 76.6079 146.393 76.8035 146.338 76.9333C144.865 75.6966 144.204 74.1721 145.337 72.3095C145.738 71.6506 146.181 71.036 146.624 70.4197C147.145 69.6978 147.666 68.9739 148.123 68.1749C148.527 67.4703 148.927 66.7255 149.332 65.9714C150.31 64.1518 151.319 62.2756 152.473 60.7663C155.343 57.017 160.352 54.4646 164.483 54.4418C164.391 55.9023 164.525 57.3056 164.661 58.7278C164.771 59.8762 164.882 61.0366 164.876 62.2497ZM153.029 85.5286C153.03 85.5263 153.028 85.5185 153.019 85.5119C153.023 85.5274 153.028 85.5305 153.029 85.5286ZM176.529 122.153C177.343 120.028 178.055 118.17 178.475 117.232C181.014 111.555 183.529 105.927 185.91 100.145C184.022 101.039 182.423 102.411 180.802 103.8C180.558 104.009 180.313 104.219 180.066 104.428C179.213 105.151 178.282 105.803 177.346 106.46C175.941 107.445 174.524 108.438 173.343 109.687C173.076 109.97 172.859 110.284 172.653 110.583C172.181 111.265 171.763 111.87 170.912 111.86C170.331 111.853 169.508 111.107 168.771 110.439C168.343 110.051 167.943 109.689 167.639 109.515C167.039 109.175 166.544 108.728 166.055 108.287C165.503 107.789 164.958 107.297 164.277 106.97C163.854 106.766 163.508 106.697 163.189 106.635C162.65 106.529 162.189 106.437 161.564 105.731C161.161 108.689 155.564 107.296 151.933 106.392C150.727 106.092 149.738 105.846 149.228 105.831C149.034 105.825 148.833 105.818 148.626 105.81C146.812 105.745 144.557 105.663 142.977 106.506C141.766 107.152 140.335 108.611 139.093 109.876C138.613 110.365 138.162 110.825 137.763 111.198C135.793 113.039 134.388 115.385 132.938 117.932C131.077 121.2 133.856 120.885 135.861 120.657C135.999 120.642 136.134 120.626 136.263 120.613C140.834 120.131 145.275 121.087 149.681 122.384C153.616 123.542 157.196 125.321 160.963 127.2C161.66 127.547 162.929 128.365 164.36 129.288C167.276 131.168 170.866 133.484 171.675 133.141C172.445 132.815 174.736 126.834 176.529 122.153Z" fill="#EFA25C"/>
<path fill-rule="evenodd" clip-rule="evenodd" d="M202.065 85.3321C203.652 85.2314 205.231 85.6713 206.818 85.4796C205.44 83.9892 204.063 82.4992 202.686 81.0092C202.077 82.3365 202.033 83.8467 202.065 85.3321ZM164.429 54.6961C160.323 54.7185 155.314 57.2806 152.462 61.0225C150.95 63.0056 149.701 65.6688 148.423 67.8966C147.566 69.3917 146.729 70.8344 145.688 72.1482C144.171 74.0627 144.605 74.5004 146.315 75.9419C146.856 74.6824 149.725 67.9477 150.928 68.2506C152.755 68.7115 149.226 75.825 148.841 76.7112C147.699 79.3333 145.856 82.9958 146.684 85.7612C147.777 89.4117 146.192 91.4919 144.816 94.6025C146.261 94.6544 146.403 93.9545 146.902 92.4234C147.541 90.4559 148.239 88.8121 149.591 87.4518C150.639 86.3983 152.352 85.9549 152.844 84.6829C153.452 83.1108 153.07 80.0065 153.12 78.2573C153.195 75.5996 153.2 69.3173 155.558 68.1364C158.027 66.8993 162.468 68.0651 164.883 68.9815C164.581 66.6394 163.63 65.1099 163.643 62.5071C163.657 59.7827 164.261 57.3523 164.429 54.6961ZM132.885 98.1592C135.032 97.3145 137.069 96.4244 139.278 95.8489C141.591 95.2462 141.746 94.5568 143.049 92.0931C144.037 90.2254 145.236 88.7699 144.956 86.4828C144.777 85.0156 144.13 84.301 144.325 82.6511C144.445 81.6285 144.829 80.5123 145.107 79.5397C145.447 78.3468 146.152 76.9939 144.513 76.935C143.607 76.9021 143.563 77.4959 142.95 78.4924C141.818 80.3334 140.517 82.005 139.313 83.7708C137.222 86.8364 135.005 90.0984 132.672 92.9359C130.103 96.058 127.885 99.8235 126.225 103.821C125.918 104.559 124.053 108.906 124.849 109.759C125.579 110.542 129.643 108.716 130.383 108.503C133.582 107.58 137.212 107.251 140.233 105.576C141.773 104.722 145.17 103.704 146.386 102.383C147.516 101.156 147.465 98.1821 146.809 96.4519C144.973 97.8707 131.701 103.224 132.885 98.1592ZM172.842 73.7598C174.985 71.355 177.518 69.4257 180.165 67.9961C182.532 66.7176 185.472 65.2923 188.106 65.5142C191.386 65.7904 190.016 69.0737 190.004 71.8693C189.988 75.5794 188.68 80.9236 192.245 82.8486C193.409 77.7116 195.863 65.5646 201.74 72.2954C203.242 67.3563 208.6 65.6846 212.372 64.7775C211.688 62.2821 209.611 60.0232 208.172 58.1502C206.371 55.8073 204.949 53.0612 203.145 50.7625C199.581 46.2228 193.124 47.6806 188.612 48.8124C187.106 49.1896 182.74 49.6637 182.01 51.0379C181.552 51.8997 181.808 54.0051 181.469 55.059C181.002 56.5107 180.203 57.8566 179.562 59.1975C177.225 64.0904 174.847 69.0152 170.848 71.817L172.842 73.7598ZM185.922 100.12C183.805 101.128 182.249 102.815 180.372 104.235C178.096 105.958 175.427 107.571 173.385 109.698C172.638 110.476 172.218 111.82 171.186 111.907C170.289 111.983 168.922 110.689 168.126 110.236C166.792 109.475 165.517 108.322 164.176 107.643C163.074 107.086 162.586 107.2 161.633 106.116C161.098 110.071 151.368 106.374 149.326 106.314C147.438 106.258 144.847 106.536 143.09 107.479C141.415 108.377 140.106 110.355 138.672 111.702C136.707 113.549 134.833 115.418 133.386 117.975C131.401 121.481 134.395 120.489 136.392 120.277C140.95 119.793 145.384 121.142 149.778 122.443C153.706 123.606 157.585 125.002 161.345 126.888C163.459 127.949 165.685 128.925 167.674 130.303C168.722 131.031 170.423 132.811 171.626 132.298C172.729 131.827 173.829 127.899 174.497 126.329C175.796 123.283 177.163 120.288 178.504 117.272C181.038 111.574 183.547 105.924 185.922 100.12ZM159.881 175.531C161.185 174.601 163.311 174.851 164.753 174.461C166.383 174.021 168.021 173.303 169.575 172.555C171.149 171.797 172.636 171.022 174.074 170.074C174.731 169.64 175.608 169.214 176.215 168.612C176.705 168.127 176.883 167.226 177.335 166.787C178.513 165.639 178.859 166.359 179.017 164.145C179.189 161.74 178.102 160.379 176.75 158.579C175.54 156.968 173.968 155.576 172.447 154.443C171.774 153.942 171.055 153.378 170.369 152.9C169.33 152.176 167.938 150.971 167.393 152.526C168.528 152.886 168.778 154.687 167.754 155.334C167.191 155.69 166.339 155.168 165.705 155.545C164.726 156.129 163.783 157.756 162.945 158.633C160.193 161.511 157.562 162.59 153.96 162.821C146.434 163.304 138.553 162.237 131.171 160.851C129.272 160.494 127.375 160.881 125.458 160.796C123.592 160.713 121.647 160.206 119.813 159.815C116.281 159.061 112.557 158.44 109.08 157.332C104.874 155.99 100.654 154.255 96.7054 152.007C92.918 149.851 88.637 146.289 84.3828 146.015C86.1983 148.223 88.9185 149.074 91.1022 150.528C92.8868 151.716 95.6778 152.479 96.8055 154.437C97.5395 155.711 97.9077 158.052 98.4623 159.546C99.0753 161.199 99.6411 162.879 100.209 164.558C100.779 166.246 101.373 167.936 101.836 169.675C102.123 170.754 102.246 172.991 102.924 173.729C104.004 174.906 107.619 175.429 109.075 175.82C111.793 176.552 114.894 176.455 117.666 176.506C118.812 176.527 119.966 176.721 121.061 176.747C122.598 176.784 122.452 176.453 122.43 174.795C122.417 173.799 122.434 171.988 123.505 172.808C124.236 173.367 123.733 175.842 123.598 176.722C129.718 177.479 136.102 177.86 142.193 177.606C148.182 177.357 153.965 176.398 159.881 175.531ZM187.517 158.08C188.597 148.448 189.913 138.654 191.386 129.146C192.874 119.539 194.664 110.018 196.677 100.446C195.347 100.051 194.018 99.6566 192.688 99.2619C192.639 101.279 192.09 103.03 191.855 105.038C191.532 107.809 190.915 110.5 190.545 113.261C189.843 118.511 188.542 123.648 187.395 128.768C186.227 133.987 185.836 139.364 184.762 144.609C183.878 148.931 183.426 153.691 182.931 158.133C181.733 168.911 180.025 179.71 178.725 190.493C177.506 200.603 177.384 210.918 177.454 221.122C177.497 227.352 178.262 233.564 178.222 239.803C178.212 241.345 178.317 242.882 178.381 244.422C178.427 245.508 177.957 248.519 178.355 249.429C178.607 250.005 179.691 250.536 180.074 251.336C180.681 252.602 180.809 254.115 181.783 255.072C182.573 251.115 182.199 245.893 182.027 241.854C181.86 237.963 182.184 233.942 182.248 229.991C182.373 222.241 182.703 214.604 183.023 206.85C183.374 198.346 184.371 189.636 185.345 181.196C186.231 173.523 186.821 165.713 187.517 158.08ZM158.616 37.2804C158.188 37.2304 157.76 37.1812 157.331 37.1317C157.395 38.2526 157.205 40.0679 157.841 40.6528C158.323 41.0958 159.299 40.9502 159.883 41.0916C161.798 41.5568 164.017 41.946 165.918 41.0986C166.657 40.7693 166.182 40.2538 167.199 40.468C168.424 40.7267 167.977 40.9676 168.331 41.917C168.603 42.6498 168.744 43.8969 169.053 44.7769C169.467 45.954 170.306 48.061 169.948 49.4204C169.599 50.742 168.298 51.1413 167.745 52.6379C167.334 53.7506 167.431 55.3681 167.217 56.5935C166.932 58.228 166.572 59.8563 166.413 61.521C166.212 63.6183 166.281 66.0793 168.373 66.4043C170.314 66.7068 171.702 65.9318 173.004 64.1753C175.49 60.8223 178.329 56.0893 179.79 51.8714C179.96 51.3787 180.38 50.5564 180.322 50.0289C180.206 48.9855 180.155 50.0417 179.889 49.317C179.635 48.6241 179.236 47.9955 179.002 47.2267C178.158 44.4647 177.56 41.5695 177.223 38.6457C177.069 37.3211 177.018 36.0127 177.044 34.6753C177.053 34.2186 177.273 32.8475 177.142 32.5346C177.008 32.2178 176.308 32.0718 176.09 31.7573C175.686 31.1743 174.991 29.5286 174.544 29.0921C173.993 28.5561 172.76 28.981 172.537 27.9143C172.179 26.2078 180.65 23.428 176.693 21.1507C173.737 19.4505 169.205 28.0456 168.172 21.2822C167.993 20.1107 168.334 18.5205 167.92 17.4468C167.463 16.2602 166.219 15.8166 165.349 15.2392C164.24 14.5029 163.12 13.7463 162.042 12.9399C161.302 12.3873 160.237 10.9198 159.45 10.7854C159.76 12.7773 159.166 14.7518 159.156 16.7398C160.861 16.1667 162.034 16.1545 163.716 17.1737C164.518 17.6586 167.537 20.4111 166.007 21.735C164.768 20.825 163.442 20.0357 162.061 19.5006C161.516 19.2893 160.836 19.002 160.256 18.9874C158.911 18.9538 159.1 19.1286 158.595 20.3887C158.108 21.6026 158.213 24.7685 157.144 25.5437C156.039 26.3453 156.891 25.2233 155.947 25.4823C155.409 25.6304 154.822 26.1276 154.329 26.4084C155.005 27.319 156.368 28.1502 156.815 29.1615C157.469 30.636 157.242 33.6853 157.344 35.2985C158.2 34.9181 159.1 34.9026 159.967 34.6203C160.781 34.3542 161.911 33.2039 161.997 34.8953C162.091 36.78 159.693 37.2804 158.616 37.2804ZM169.746 86.9053C169.813 85.2767 169.886 83.6484 170.032 82.0263C170.13 80.9372 170.963 77.7782 170.492 76.8215C169.981 75.7808 168.266 75.7146 167.44 75.4648C165.858 74.9857 164.341 74.5933 162.732 74.2769C161.253 73.986 159.86 73.9248 158.37 73.8404C156.747 73.7494 156.344 73.2145 155.986 75.4361C155.704 77.1833 155.325 79.0029 155.273 80.7915C155.223 82.4706 155.632 83.928 154.292 85.0594C157.233 85.0594 161.064 81.8063 163.748 84.7151C167.587 88.8748 160.906 90.0732 159.144 90.9915C160.609 91.8758 162.783 92.5702 163.472 94.5897C164.245 96.8536 163.123 97.8161 161.405 97.9973C161.567 98.8699 162.185 99.4366 162.37 100.486C162.639 102.024 161.764 101.515 162.881 102.705C164.351 104.271 167.378 105.318 169.181 106.316C169.604 106.551 170.031 106.771 170.463 106.977C171.139 107.724 171.637 107.581 171.96 106.55C172.885 105.822 173.708 104.199 174.529 103.256C176.354 101.155 178.369 99.3115 180.539 97.7947C179.639 97.3319 178.564 98.3777 177.701 97.8687C177.003 97.4574 177.266 96.7087 176.848 96.1483C177.016 95.4174 176.839 95.1501 176.318 95.3465C176.057 95.381 175.815 95.326 175.591 95.1823C175.154 94.5103 174.958 94.2903 174.929 93.2527C174.899 92.1519 175.412 91.7635 175.609 90.8819C176.249 90.3401 176.235 89.8075 175.565 89.2854C175.29 88.7265 175.14 88.1204 175.115 87.4662C174.988 85.0381 176.772 84.0593 178.133 82.775C175.696 82.4423 175.789 78.8925 177.475 77.3409C179.222 75.732 182.921 76.3909 185.034 76.7538C185.474 76.8285 186.661 77.5327 187.105 77.0838C187.377 76.8088 187.185 74.4829 187.197 74.0724C187.226 73.1405 187.409 72.0293 187.289 71.102C187.039 69.1608 187.569 70.1384 186.444 70.0846C183.767 69.9556 180.357 72.8589 178.002 74.2277C175.366 75.7599 173.671 75.9954 173.644 79.7946C173.617 83.3916 172.806 86.9758 172.451 90.5159C172.296 92.0617 172.185 100.093 169.908 97.1297C169.025 95.9798 169.591 94.2121 169.656 92.7941C169.745 90.8432 169.692 88.8617 169.746 86.9053ZM22.4657 207.32C23.7692 207.607 25.8918 206.678 27.3138 206.58C29.7999 206.41 32.3602 206.116 34.7961 205.473C36.7017 204.97 38.8732 204.528 39.9008 202.236C40.8196 200.189 41.1442 197.624 41.639 195.389C41.9018 194.203 42.5799 192.482 42.5796 191.254C42.5793 189.658 42.4062 189.973 41.0665 189.099C39.3708 187.994 37.7209 186.453 35.8917 185.826C35.3383 185.692 34.7846 185.561 34.2305 185.432C33.5138 184.915 33.1094 185.169 33.0155 186.193C32.3159 187.109 31.9059 188.798 31.3189 189.87C29.9807 192.313 28.3916 193.978 26.3155 195.387C22.5795 197.922 19.0985 199.879 15.0972 201.536C12.892 202.45 10.8586 203.731 8.70314 204.738C6.97634 205.545 4.59315 205.79 3.2667 207.586C1.77005 209.612 4.07049 210.349 5.34912 211.719C6.39681 212.841 6.4172 213.099 7.85031 212.554C8.91798 212.148 9.86454 211.372 10.8897 210.845C14.4019 209.043 18.6527 207.844 22.4657 207.32ZM102.73 239.456C101.421 239.104 100.112 238.752 98.8034 238.401C100.09 241.387 102.798 245.755 100.855 249.21C100.128 250.501 98.9206 250.869 97.8416 251.523C96.5355 252.316 95.3296 253.331 94.095 254.276C89.0037 258.171 83.8294 262.12 78.4647 265.461C80.1442 266.135 82.7263 266.601 84.4561 266.014C86.4702 265.331 88.3352 263.762 90.4029 263.076C94.1127 261.846 98.0174 260.798 101.786 260.167C104.867 259.652 112.579 260.817 112.204 255.061C111.848 249.597 109.221 244.383 108.439 238.981C106.52 239.51 104.69 239.417 102.73 239.456ZM180.749 151.992C182.241 142.895 183.132 133.644 184.892 124.613C185.77 120.108 186.388 115.541 187.246 111.034C187.645 108.938 187.946 106.82 188.335 104.728C188.729 102.609 189.575 100.654 189.769 98.4636C188.344 98.9021 188.014 102.958 187.582 104.484C186.789 107.284 185.924 109.974 184.906 112.655C183.286 116.915 181.568 121.026 179.741 125.156C177.815 129.513 175.781 133.703 173.375 137.681C172.584 138.989 171.511 140.013 171.001 141.447C170.2 143.703 169.863 146.392 169.098 148.739C169.637 149.079 171.029 149.164 171.69 149.326C172.92 149.627 173.781 149.895 174.962 150.622C177.043 151.901 178.791 153.418 180.181 155.72C180.53 154.539 180.621 153.243 180.749 151.992ZM122.759 221.396C122.735 212.635 122.635 203.8 122.75 195.104C122.782 192.69 122.94 190.085 123.222 187.689C123.399 186.182 124.441 182.981 123.756 182.259C123.171 181.641 120.083 182.048 119.325 182.026C117.855 181.984 116.39 181.902 114.917 181.765C114.917 185.012 115.938 188.699 116.412 191.91C116.855 194.906 117.218 197.919 117.583 200.929C118.373 207.446 118.598 214.053 119.456 220.588C120.233 226.513 121.258 232.414 121.824 238.338C122.134 241.59 122.761 244.658 123.249 247.908C123.504 249.603 124.433 256.584 125.603 257.27C125.851 254.766 124.84 251.742 124.659 249.21C124.473 246.596 124.328 243.964 123.986 241.336C123.586 238.251 123.383 235.09 123.23 231.967C123.136 230.056 123.108 228.15 122.974 226.241C122.878 224.855 122.456 222.755 122.759 221.396ZM159.51 104.248C159.559 103.294 157.571 103.332 157.201 102.236C156.45 100.009 158.161 100.41 159.214 100.179C158.839 98.9412 151.812 99.392 153.45 96.0495C154.585 93.7302 158.891 97.28 160.042 95.0762C160.798 93.6288 158.74 93.4293 157.923 93.2844C156.695 93.0656 153.801 93.7725 153.896 91.7921C154.016 89.304 159.642 87.5866 161.221 86.8558C161.046 85.1519 154.274 87.5739 153.294 88.2644C151.076 89.8276 149.377 92.6326 149.051 95.7497C148.672 99.3765 150.153 102.233 153.069 103.123C154.285 103.494 155.183 103.536 156.308 104.093C157.049 104.46 159.444 105.375 159.952 104.449C159.804 104.382 159.657 104.315 159.51 104.248ZM199.262 81.6886C199.374 80.1397 200.423 77.224 199.214 76.2065C197.522 74.7823 196.821 77.1291 196.437 78.5389C195.968 80.2601 193.997 84.4734 195.721 85.5459C196.121 85.7953 198.022 85.5052 198.357 85.3406C199.291 85.6427 199.591 85.2085 199.262 84.0365V81.6886ZM157.964 206.767C157.858 202.534 159.384 197.445 160.248 193.299C161.228 188.601 161.745 183.81 162.783 179.163C161.628 179.337 160.462 179.478 159.321 179.765C157.764 180.158 157.736 180.096 157.848 181.994C158.015 184.843 157.796 187.637 157.678 190.486C157.44 196.189 158.018 201.986 157.634 207.653C157.977 207.761 158.087 207.466 157.964 206.767ZM201.075 95.8237C204.816 96.5352 208.402 98.0085 211.806 99.9881C213.683 101.079 215.749 102.252 217.846 102.688C220.176 103.172 222.647 102.945 225.026 103.132C225.865 103.197 228.069 103.704 228.887 103.091C229.697 102.484 229.634 101.455 229.672 100.228C229.77 97.0736 228.621 93.9847 227.587 91.1542C226.7 88.7257 226.03 86.8716 224.654 84.7828C222.887 82.0999 221.349 79.2047 219.694 76.4044C218.446 74.2939 217.186 72.2133 215.914 70.1051C215.005 68.5953 215.048 68.0759 213.677 68.2448C212.327 68.4113 210.967 69.4029 209.696 69.9281C207.808 70.7081 205.522 71.1361 203.801 72.3833C202.688 73.1897 202.639 73.338 202.652 74.7451C202.664 76.0558 203.004 77.6547 203.635 78.6799C204.946 80.8086 207.12 81.9353 208.985 82.9973C210.064 83.6112 210.996 84.4827 211.957 85.3297C212.992 86.243 215.08 86.781 215.872 87.8221C218.177 90.854 213.98 90.2549 212.807 90.1634C210.277 89.9655 207.76 89.9957 205.21 89.9934C202.428 89.9911 199.667 89.8304 196.924 89.9427C195.317 90.0085 193.474 88.9961 192.432 87.3085C191.928 86.4909 191.732 85.7182 191.073 84.87C190.209 83.7596 189.458 82.5895 188.407 81.73C186.688 80.3237 183.563 79.5281 181.517 80.0529C182.25 80.18 185.697 81.6378 184.179 83.4702C183.994 83.6933 181.777 83.8393 181.295 84.1143C180.425 84.6105 179.329 85.3317 178.819 86.3794C180.304 86.0703 185.813 85.7124 183.003 89.2529C182.313 90.122 180.332 90.9892 182.018 91.9133C182.405 92.1256 183.18 91.825 183.678 92.0164C184.419 92.3014 185.024 93.0633 185.718 93.4696C187.686 94.623 190.399 95.3341 192.453 95.0816C195.294 94.7315 198.254 95.3616 201.075 95.8237ZM125.75 202.5C125.847 207.586 125.699 212.702 125.787 217.811C125.88 223.268 126.444 228.615 126.712 234.016C126.953 238.857 127.479 243.606 127.907 248.424C128.153 251.199 128.436 253.852 128.814 256.607C129.168 259.184 129.229 261.455 126.748 262.148C122.007 263.473 121.27 254.999 120.354 251.428C118.986 246.099 118.109 240.505 117.431 234.981C116.169 224.693 114.491 214.549 113.836 204.173C113.433 197.784 112.849 191.461 112.517 185.078C112.452 183.827 112.709 181.9 111.824 181.343C111.293 181.009 109.828 181.005 109.157 180.763C107.286 180.087 105.561 179.092 103.736 178.059C105.031 186.472 105.459 194.843 106.431 203.33C106.946 207.833 107.933 212.499 108.787 216.931C109.673 221.523 109.87 226.469 110.892 230.961C111.342 232.942 111.723 233.748 111.07 235.781C110.268 238.276 110.8 238.873 111.805 241.323C113.653 245.831 115.064 251.15 114.751 256.232C114.495 260.383 111.971 262.556 108.844 263.676C104.933 265.076 100.837 264.91 96.9016 266.501C93.4733 267.886 89.9898 268.909 86.6603 270.738C85.3178 271.475 84.0424 272.35 82.5518 272.486C80.5071 272.67 79.1285 271.196 77.1976 270.889C75.9907 270.698 74.2236 271.413 73.5283 269.841C72.9771 268.595 73.6007 265.876 74.2928 264.874C76.2364 262.055 80.129 259.599 82.75 257.935C85.7712 256.018 88.6944 253.619 91.4935 251.145C93.1902 249.645 94.9202 248.205 96.6157 246.703C97.7371 245.708 98.1633 245.702 98.0489 244.121C97.9575 242.861 97.5005 241.639 97.4203 240.349C97.3592 239.361 97.638 238.013 97.262 237.368C96.9854 236.893 95.9472 236.557 95.5391 236.197C94.0463 234.882 93.7071 233.256 93.0293 231.256C91.4894 226.714 89.7204 222.3 88.2336 217.721C85.041 207.891 83.093 197.554 80.4463 187.523C77.7426 177.275 75.3248 166.517 73.8357 155.885C71.8432 156.638 69.9626 159.971 68.3756 161.621C66.2318 163.85 64.0351 166.005 61.9328 168.295C58.4867 172.049 54.9973 175.7 52.1495 180.196C50.7774 182.361 49.6541 184.692 48.412 186.966C47.6946 188.28 47.0255 189.768 46.2486 191.018C46.1239 191.219 46.1201 191.631 45.9857 191.802C45.6899 192.177 45.1246 191.677 44.9351 191.925C43.764 193.446 43.7793 197.765 43.4145 199.772C42.9116 202.538 42.347 205.718 40.6085 207.625C37.9229 210.569 32.9703 211.025 29.5717 211.178C25.2099 211.374 20.9788 212.884 16.8406 214.506C14.9104 215.262 13.0307 216.147 11.0933 216.881C9.97902 217.304 8.70785 218.147 7.51783 217.985C6.08273 217.79 4.94958 216.29 3.89836 215.175C2.21664 213.391 0.659634 211.633 0.715317 208.706C0.774523 205.609 2.12529 203.271 4.25319 201.732C8.36711 198.757 12.9684 196.85 17.4027 194.794C19.1019 194.006 20.5567 193.134 22.1813 192.073C24.4773 190.573 27.1199 189.349 29.157 187.369C29.7575 186.785 31.9649 184.995 32.1529 184.072C32.1775 183.952 31.626 182.542 31.6235 182.319C31.6182 181.744 31.8922 181.121 32.0609 180.629C33.1219 177.53 34.9015 174.546 36.2621 171.624C38.7538 166.272 41.2552 160.892 44.1441 155.858C49.9048 145.822 56.376 135.996 63.3604 127.235C66.7653 122.965 69.7075 118.12 73.1604 113.909C74.5285 112.241 75.9727 110.882 77.6581 109.799C79.5372 108.592 81.6464 108.355 83.8001 107.987C89.0192 107.094 93.3779 109.012 98.2777 110.681C102.91 112.259 107.547 113.59 112.206 115.233C117.321 117.037 122.385 118.768 127.484 120.735C130.209 121.786 133.012 122.431 135.749 123.439C137.068 123.924 142.051 126.965 143.15 125.966C139.688 123.948 136.141 122.108 132.437 120.89C131.346 120.531 130.649 120.928 130.69 119.372C130.712 118.524 131.48 117.378 131.756 116.679C132.418 115.007 133.168 113.372 133.815 111.694C131.467 112.523 125.155 115.39 123.385 112.426C121.534 109.324 123.08 103.242 124.24 100.204C127.27 92.2755 132.423 85.659 137.444 79.6819C138.53 78.3898 140.871 76.7023 141.45 75.0562C141.626 74.5557 141.243 73.8206 141.64 73.1707C141.876 72.7838 142.825 72.5196 143.204 72.1029C144.584 70.5846 145.686 67.39 146.639 65.3996C147.639 63.315 148.539 61.0578 149.794 59.1874C151.848 56.1292 153.968 52.8873 157.293 52.1719C158.924 51.8214 160.656 52.0085 162.219 51.3086C164.11 50.4623 165.906 49.1292 167.814 48.2527C167.341 47.0435 166.957 45.1201 166.038 44.988C165.154 44.8606 163.856 45.8052 162.844 45.7983C161.365 45.7882 160.103 45.4946 158.676 45.1445C157.097 44.7564 156.577 44.8269 156.001 42.6986C155.397 40.4692 155.549 37.8796 155.554 35.5638C155.557 34.4324 155.737 33.0277 155.66 31.9168C155.544 30.2432 155.282 30.1789 154.226 29.1146C152.906 27.7849 151.28 26.0254 152.896 23.7149C153.769 22.4664 155.564 23.4373 156.337 22.0959C157.125 20.7296 157.087 17.2973 157.327 15.6925C154.898 17.1756 155.789 11.6311 155.789 10.297C155.788 8.35565 154.741 4.8645 156.248 3.24942C156.949 2.49958 157.469 3.11991 158.27 2.68898C159.184 2.1972 159.76 0.907359 160.732 0.407294C162.665 -0.586948 164.639 0.610365 166.623 0.412678C168.899 0.186253 171.135 -0.250989 173.424 0.202791C174.508 0.417055 174.964 0.928778 175.882 1.50239C176.764 2.05405 177.659 2.20499 178.617 2.55996C179.47 2.87597 180.218 3.03566 180.794 3.95883C181.25 4.68923 181.064 5.91769 181.524 6.54727C181.978 7.1676 182.875 7.07751 183.416 7.81422C183.935 8.52123 184.246 9.6898 184.516 10.5697C184.88 11.7548 184.923 12.1998 185.565 13.1483C186.124 13.9761 186.93 14.6417 187.397 15.5858C188.497 17.8115 188.525 21.03 188.174 23.5337C188.055 24.3863 187.06 26.5901 187.216 27.3155C187.364 28.0061 188.297 27.8244 188.719 28.2613C189.084 28.6386 189.405 30.3199 189.693 30.4226C190.315 30.6441 191.082 29.1185 191.553 28.8896C192.372 28.4918 192.715 28.0839 193.168 29.5832C193.504 30.6956 193.036 32.2058 192.789 33.2674C192.476 34.6191 192.129 36.247 191.298 37.2692C190.321 38.4706 189.539 37.8137 188.46 38.4609C186.845 39.4308 187.321 42.4635 185.333 43.3303C183.438 44.156 181.351 41.5579 179.918 40.3634C180.215 43.2629 181.332 46.057 180.796 49.0285C185.153 46.9075 189.463 43.8973 194.212 43.2342C196.634 42.8957 199.08 42.4952 201.366 43.7439C204.042 45.2057 205.681 48.4301 207.493 51.1091C210.896 56.1443 214.389 61.038 217.655 66.2354C220.652 71.0029 223.178 76.5268 226.477 80.991C229.821 85.5176 232.345 92.8623 231.978 99.1306C231.946 99.6965 231.593 100.982 231.648 101.592C231.691 102.059 232.033 102.652 232.027 103.029C232.009 104.297 231.672 105.028 230.698 105.731C229.011 106.952 226.497 107.57 224.59 107.873C222.057 108.276 218.954 108.319 216.42 107.889C213.806 107.445 211.508 105.627 209.104 104.529C206.995 103.565 204.878 102.963 202.662 102.348C201.44 102.008 200.087 101.069 199.331 101.978C198.638 102.814 198.494 107.1 198.332 108.24C196.579 120.595 194.496 132.532 192.651 144.824C190.56 158.756 189.13 172.683 187.675 186.734C186.354 199.506 185.922 212.423 185.626 225.184C185.485 231.271 185.464 237.292 185.494 243.384C185.511 246.796 186.884 258.183 182.813 258.619C180.421 258.876 178.507 254.615 177.866 252.292C176.903 248.8 176.401 245.041 176.248 241.373C175.937 233.949 175.53 226.519 175.289 219.092C175.028 211.045 175.36 202.85 175.892 194.83C176.428 186.756 177.778 178.799 178.192 170.713C176.95 172.916 176.553 173.33 174.483 174.289C172.317 175.294 170.234 176.482 168.049 177.418C167.306 177.737 166.145 177.936 165.536 178.458C164.411 179.42 165.15 178.328 164.791 180.201C164.408 182.202 164.335 184.603 164.233 186.659C163.755 196.307 161.603 205.887 160.611 215.484C160.371 217.801 160.713 227.638 157.503 224.538C155.031 222.15 155.08 214.651 154.728 211.139C154.26 206.456 154.521 201.642 154.595 196.932C154.679 191.567 154.752 185.94 155.782 180.702C153.938 180.31 151.374 181.378 149.518 181.558C147.912 181.713 146.31 181.812 144.712 181.921C140.902 182.181 136.977 182.388 133.102 182.295C132.397 182.278 127.789 181.477 127.2 182.123C127.009 182.333 126.95 185.219 126.914 185.572C126.779 186.898 126.595 188.223 126.458 189.542C126.02 193.758 125.625 198.286 125.75 202.5Z" fill="#66574B"/>
<path fill-rule="evenodd" clip-rule="evenodd" d="M194.185 242.569C197.093 243.98 200.18 244.493 203.112 245.779C205.734 246.929 208.169 248.475 210.75 249.643C210.901 248.156 210.982 245.636 210.539 244.234C209.913 242.249 208.266 242.2 206.643 241.493C202.694 239.772 198.54 239.409 194.62 237.398C195.291 239.003 194.992 241.129 194.185 242.569ZM244.384 237.377C238.104 237.605 232.102 239.421 225.912 240.544C222.9 241.09 219.885 241.578 216.87 242.088C215.71 242.283 213.596 242.053 212.752 243.3C212.053 244.334 212.819 247.862 212.509 249.376C213.778 249.493 216.032 248.02 217.41 247.776C219.556 247.397 221.673 246.866 223.841 246.697C227.274 246.428 230.647 246.2 234.074 245.725C237.56 245.242 240.933 244.345 244.446 244.017C246.153 243.858 246.84 244.256 246.941 242.016C246.98 241.14 247.077 239.675 246.879 238.811C247.195 237.749 246.915 237.234 246.038 237.264C245.482 237.186 244.931 237.224 244.384 237.377ZM232.237 230.229C233.936 230.031 235.641 229.747 237.344 229.628C237.689 229.604 239.44 229.735 239.726 229.336C240.131 228.772 239.68 226.708 239.606 226.07C239.353 223.899 239.074 222.636 237.168 222.632C235.559 222.627 233.894 223.05 232.291 223.245C225.016 224.13 217.778 224.504 210.584 226.186C211.022 228.503 211.519 230.893 210.995 233.262C214.447 233.484 218.236 232.659 221.609 231.812C225.056 230.948 228.714 230.518 232.237 230.229ZM220.723 208.416C218.124 208.43 215.377 209.852 212.812 209.535C212.774 210.128 213.595 209.636 213.821 210.191C214.306 210.192 214.474 210.388 214.326 210.781C214.336 211.048 214.225 211.205 213.996 211.25C213.883 211.263 213.77 211.275 213.657 211.287C213.161 211.307 213.08 211.722 213.414 212.534C213.27 213.54 213.485 214.818 213.516 215.828C218.125 215.049 222.603 214.239 227.245 213.891C229.436 213.727 231.626 213.727 233.814 213.504C236.222 213.257 238.851 213.785 241.205 213.225C242.463 212.926 242.331 212.947 242.24 210.914C242.184 209.678 242.205 208.212 241.395 207.311C240.043 205.806 236.965 206.676 235.348 206.729C230.479 206.889 225.527 207.451 220.723 208.416ZM223.384 237.449C230.346 236.664 237.257 234.943 244.259 234.943C243.764 234.329 242.686 234.17 242.07 233.835C241.367 233.453 240.704 232.639 240.017 232.305C238.639 231.635 237.237 232.566 235.822 232.969C232.409 233.94 228.906 233.972 225.487 234.925C221.952 235.909 218.371 236.817 214.771 237.318C213.057 237.556 211.218 238.039 209.524 237.476C209.387 237.354 209.249 237.232 209.111 237.11C208.963 236.327 208.552 236.118 207.878 236.483C207.022 236.28 205.932 236.542 205.07 236.569C205.035 236.996 208.219 238.337 208.826 238.67C210.289 239.47 211.281 240.056 212.843 239.713C216.361 238.941 219.821 238.02 223.384 237.449ZM198.89 212.16C199.162 213.478 200.305 212.878 201.289 213.024C202.609 213.218 203.923 213.784 205.201 214.21C207.524 214.986 209.847 215.75 212.159 216.57C212.068 215.41 212.275 212.768 211.781 211.739C211.263 210.66 208.808 210.187 207.665 209.858C204.782 209.029 201.704 209.501 198.776 209.675C198.828 210.503 198.866 211.33 198.89 212.16ZM226.575 220.404C229.31 220.117 232.047 219.893 234.79 219.773C237.925 219.637 235.646 219.014 235.58 216.639C231.459 217.455 227.302 217.616 223.193 218.314C219.79 218.893 215.735 220.405 212.264 219.593C210.627 219.21 208.955 219.063 207.213 218.846C205.57 218.642 204.019 217.691 202.396 217.455C200.574 217.19 198.712 218.462 196.899 218.798C196.131 218.941 195.953 219.588 195.59 218.439C195.214 217.247 196.291 216.274 196.716 215.561C197.211 214.729 197.005 216.08 197.28 214.78C197.357 214.416 197.149 213.501 197.11 213.108C197.013 212.117 196.762 211.04 196.723 210.05C196.687 209.141 196.681 207.753 197.475 207.222C197.96 206.898 198.304 207.37 198.727 207.279C202.027 206.566 205.909 206.507 209.255 207.196C212.884 207.941 216.006 205.967 219.582 205.167C223.778 204.227 228.017 204.087 232.248 203.69C235.866 203.351 242.477 201.592 243.855 207.332C244.245 208.959 244.814 213.437 243.764 214.821C242.386 216.639 239.195 216.059 237.413 216.531C237.68 217.473 238.474 218.113 238.199 219.235C240.696 219.381 241.137 222.312 241.529 225.047C241.933 227.877 241.144 229.002 243.321 230.475C246.355 232.529 249.57 234.603 249.51 239.495C249.48 241.954 249.259 245.663 247.226 246.939C245.238 248.187 242 247.976 239.808 248.429C235.564 249.307 231.305 250.337 227.036 250.864C222.489 251.426 217.867 251.887 213.313 252.137C210.832 252.275 208.689 252.74 206.292 251.703C203.936 250.683 201.632 249.938 199.201 249.181C196.801 248.434 189.455 247.429 191.595 242.33C191.938 241.514 193.109 240.866 193.298 240.094C193.602 238.85 192.572 237.879 192.615 236.755C192.694 234.697 194.562 234.439 195.853 234.439C193.641 232.721 196.602 230.687 196.585 229.228C196.554 226.658 193.981 224.99 193.835 222.836C193.481 217.593 206.869 223.052 208.929 224.186C207.343 227.108 199.985 224.58 197.794 224.137C198.093 225.112 198.379 225.989 198.465 226.988C198.535 227.802 198.285 228.732 198.514 229.551C198.876 230.846 198.863 230.599 200.144 230.952C201.091 231.213 202.028 231.515 202.972 231.791C204.422 232.216 206.703 233.357 208.14 233.295C209.401 233.24 209.152 233.726 209.383 231.987C209.507 231.052 209.295 230.059 209.168 229.143C208.903 227.224 208.516 225.408 209.865 224.032C211.151 222.719 213.863 222.093 215.44 221.631C218.941 220.603 222.983 220.351 226.575 220.404Z" fill="#66574B"/>
<path fill-rule="evenodd" clip-rule="evenodd" d="M243.236 187.654C239.434 186.862 235.57 186.667 231.723 186.907C231.931 188.09 232.14 189.272 232.349 190.454C235.953 189.301 239.609 188.626 243.236 187.654ZM212.315 196.829C210.79 196.69 211.851 197.537 212.228 198.777C212.691 200.3 212.592 202.227 212.698 203.83C217.16 201.717 222.351 200.479 227.095 199.768C229.345 199.431 231.627 199.334 233.89 199.19C234.558 199.147 236.973 199.495 237.463 198.936C237.826 198.521 237.571 196.228 237.222 195.722C235.323 192.972 227.983 195.346 225.328 195.593C220.974 195.997 216.7 196.963 212.315 196.829ZM218.653 189.46C222.603 189.932 226.418 189.887 230.369 190.622C230.07 187.502 230.428 186.706 227.579 186.54C225.04 186.393 222.509 186.274 219.982 186.275C214.3 186.279 208.63 186.144 202.941 186.144V189.315C208.203 188.646 213.381 189.855 218.653 189.46ZM199.654 201.12C202.148 201.106 204.504 202.275 206.998 202.578C208.491 202.759 208.022 202.989 209.057 203.92C210.67 205.37 211.134 204.598 210.932 202.627C210.247 195.962 203.453 197.456 199.539 197.086C199.796 198.676 199.205 200.024 198.333 201.12H199.654ZM226.605 192.562C223.019 192.634 219.428 192.887 215.867 192.795C214.273 192.753 212.207 192.361 210.645 192.699C209.501 192.946 208.543 193.67 207.288 193.939C209.132 195.173 210.067 194.339 212.005 194.058C213.942 193.778 215.908 193.784 217.853 193.637C221.046 193.397 224.45 192.447 227.597 192.706C227.654 192.155 227.324 192.107 226.605 192.562ZM198.16 206.998C196.514 206.993 198.778 204.669 199.075 204.438C197.254 204.438 196.813 203.081 197.34 200.9C197.838 198.846 198.206 199.475 196.954 197.764C196.013 196.476 195.87 195.528 196.98 194.088C198.11 192.623 200.399 193.037 201.4 191.828C203.104 189.77 200.905 185.671 203.266 184.094C204.863 183.029 207.436 183.161 209.199 182.936C210.902 182.718 212.666 182.676 214.381 182.647C218.119 182.583 222.002 183.362 225.724 183.791C227.081 183.947 228.606 184.628 229.943 184.629C231.307 184.631 232.735 184.254 234.142 184.297C235.779 184.348 237.355 184.199 239.043 184.532C240.336 184.788 243.355 184.922 244.343 186.117C247.636 190.096 239.827 191.923 238.483 192.37C239.85 194.231 239.794 196.691 239.588 199.034C240.239 199.034 241.361 198.682 241.697 199.589C242.116 200.715 240.567 201.008 240.201 201.139C238.094 201.895 235.628 201.688 233.457 201.963C229.116 202.512 224.828 202.828 220.532 203.85C218.438 204.348 216.357 204.964 214.265 205.448C213.904 205.532 213.541 205.599 213.176 205.65C212.616 205.591 212.435 206.027 212.633 206.962C212.052 207.314 209.887 206.436 209.218 206.302C205.385 205.529 201.957 205.85 198.16 206.998Z" fill="#66574B"/>
<path fill-rule="evenodd" clip-rule="evenodd" d="M275.549 253.23C273.077 255.647 270.779 257.927 268.102 260.027C269.995 259.954 276.288 256.204 275.549 253.23ZM274.584 249.291C273.235 247.851 271.894 247.999 270.224 247.562C268.687 247.16 267.192 246.468 265.658 246.007C264.453 245.646 263.261 245.157 262.061 244.815C260.367 244.333 260.2 244.864 258.641 245.967C253.115 249.88 246.93 252.571 241.109 255.747C242.818 257.616 246.663 257.697 248.799 258.293C250.359 258.728 251.843 259.323 253.336 260.011C254.728 260.653 256.969 262.128 258.435 262.177C259.674 262.219 260.68 260.705 261.746 259.89C263.149 258.816 264.545 257.762 265.958 256.716C268.949 254.502 271.745 251.79 274.584 249.291ZM249.607 265.141C248.969 264.378 247.049 264.412 246.249 264.179C244.673 263.721 243.12 263.246 241.524 262.903C238.932 262.346 234.839 262.097 234.557 257.92C234.323 254.449 237.699 253.626 239.673 252.45C242.642 250.681 245.671 249.049 248.716 247.489C251.57 246.027 254.466 244.79 257.373 243.527C257.939 243.281 258.4 243.315 258.862 242.751C259.227 242.306 259.115 241.443 259.515 240.978C260.431 239.914 261.62 240.474 262.721 240.747C265.221 241.366 267.817 242.18 270.2 243.329C272.677 244.523 274.893 244.772 275.487 248.261C276.754 247.523 277.707 247.415 277.555 249.584C277.511 250.222 277.138 250.915 277.049 251.572C276.917 252.541 277.148 253.563 277.017 254.535C276.543 258.067 272.709 260.684 270.333 262.071C267.403 263.781 263.623 266.309 260.352 266.642C256.866 266.998 253.068 265.298 249.607 265.141Z" fill="#66574B"/>
<path fill-rule="evenodd" clip-rule="evenodd" d="M205.239 206.532C204.2 206.54 203.16 206.548 202.121 206.557C203.158 206.315 204.198 206.312 205.239 206.532Z" fill="#66574B"/>
<path fill-rule="evenodd" clip-rule="evenodd" d="M144.443 69.9343C144.131 70.5796 143.82 71.2249 143.508 71.8709C143.614 71.039 143.852 70.3259 144.443 69.9343Z" fill="#66574B"/>
<path fill-rule="evenodd" clip-rule="evenodd" d="M205.239 225.045C205.864 225.052 206.489 225.057 207.11 225.065C206.484 225.059 205.862 225.052 205.239 225.045Z" fill="#66574B"/>
<path fill-rule="evenodd" clip-rule="evenodd" d="M207.11 206.551C206.486 206.544 205.862 206.537 205.239 206.529C205.865 206.318 206.489 206.325 207.11 206.551Z" fill="#66574B"/>
<path fill-rule="evenodd" clip-rule="evenodd" d="M231.922 96.6592C231.905 95.8842 231.887 95.1092 231.869 94.3353C231.887 95.1107 231.905 95.8846 231.922 96.6592Z" fill="#66574B"/>
<path fill-rule="evenodd" clip-rule="evenodd" d="M125.912 213.629C125.899 212.983 125.886 212.337 125.873 211.692C125.886 212.339 125.899 212.984 125.912 213.629Z" fill="#66574B"/>
<path fill-rule="evenodd" clip-rule="evenodd" d="M142.884 182.062C143.301 182.062 143.717 182.063 144.131 182.063C143.713 182.063 143.298 182.063 142.884 182.062Z" fill="#66574B"/>
<path fill-rule="evenodd" clip-rule="evenodd" d="M198.692 42.9458C198.172 42.9927 197.652 43.0391 197.133 43.086C197.653 43.0391 198.172 42.9927 198.692 42.9458Z" fill="#66574B"/>
<path fill-rule="evenodd" clip-rule="evenodd" d="M185.464 232.22C185.449 231.703 185.433 231.185 185.418 230.671C185.433 231.189 185.449 231.705 185.464 232.22Z" fill="#66574B"/>
<path fill-rule="evenodd" clip-rule="evenodd" d="M186.082 212.467C186.07 211.95 186.059 211.433 186.048 210.918C186.059 211.434 186.071 211.951 186.082 212.467Z" fill="#66574B"/>
<path fill-rule="evenodd" clip-rule="evenodd" d="M175.442 221.375C175.457 221.892 175.473 222.41 175.487 222.925C175.472 222.407 175.457 221.892 175.442 221.375Z" fill="#66574B"/>
<path fill-rule="evenodd" clip-rule="evenodd" d="M145.378 181.683C145.691 181.678 146.003 181.673 146.313 181.667C146 181.673 145.689 181.678 145.378 181.683Z" fill="#66574B"/>
<path fill-rule="evenodd" clip-rule="evenodd" d="M235.793 201.841C236.106 201.824 236.418 201.807 236.728 201.791C236.415 201.808 236.103 201.824 235.793 201.841Z" fill="#66574B"/>
<path fill-rule="evenodd" clip-rule="evenodd" d="M176.062 233.769C176.08 234.286 176.097 234.804 176.115 235.319C176.097 234.8 176.08 234.285 176.062 233.769Z" fill="#66574B"/>
<path fill-rule="evenodd" clip-rule="evenodd" d="M209.479 231.058C209.458 231.576 209.437 232.093 209.416 232.607C209.437 232.09 209.458 231.574 209.479 231.058Z" fill="#66574B"/>
<path fill-rule="evenodd" clip-rule="evenodd" d="M173.546 0.27427C173.105 0.204553 172.664 0.135417 172.224 0.0656995C172.661 0.19119 173.139 -0.27417 173.546 0.27427Z" fill="#66574B"/>
<path fill-rule="evenodd" clip-rule="evenodd" d="M154.594 198.911C154.582 199.428 154.57 199.945 154.558 200.46C154.569 199.942 154.582 199.426 154.594 198.911Z" fill="#66574B"/>
<path fill-rule="evenodd" clip-rule="evenodd" d="M127.795 246.164C127.773 245.647 127.752 245.13 127.73 244.614C127.752 245.131 127.773 245.647 127.795 246.164Z" fill="#66574B"/>
<path fill-rule="evenodd" clip-rule="evenodd" d="M228.622 202.602C228.935 202.594 229.248 202.586 229.557 202.578C229.244 202.587 228.933 202.595 228.622 202.602Z" fill="#66574B"/>
<path fill-rule="evenodd" clip-rule="evenodd" d="M122.771 108.666C122.773 109.183 122.775 109.701 122.777 110.215C122.775 109.697 122.773 109.182 122.771 108.666Z" fill="#66574B"/>
<path fill-rule="evenodd" clip-rule="evenodd" d="M116.23 224.861C116.229 225.378 116.227 225.896 116.225 226.41C116.226 225.893 116.228 225.377 116.23 224.861Z" fill="#66574B"/>
<path fill-rule="evenodd" clip-rule="evenodd" d="M193.935 221.763C193.923 222.28 193.912 222.797 193.901 223.312C193.73 222.781 193.749 222.266 193.935 221.763Z" fill="#66574B"/>
<path fill-rule="evenodd" clip-rule="evenodd" d="M185.758 219.439C185.755 218.922 185.751 218.405 185.748 217.889C185.751 218.408 185.755 218.923 185.758 219.439Z" fill="#66574B"/>
<path fill-rule="evenodd" clip-rule="evenodd" d="M249.511 265.319C249.824 265.33 250.137 265.341 250.447 265.351C250.132 265.341 249.822 265.33 249.511 265.319Z" fill="#66574B"/>
<path fill-rule="evenodd" clip-rule="evenodd" d="M238.287 216.153C238.496 216.148 238.705 216.144 238.911 216.139C238.701 216.144 238.494 216.148 238.287 216.153Z" fill="#66574B"/>
<path fill-rule="evenodd" clip-rule="evenodd" d="M230.493 217.309C230.702 217.308 230.91 217.308 231.116 217.308C230.907 217.308 230.7 217.309 230.493 217.309Z" fill="#66574B"/>
<path fill-rule="evenodd" clip-rule="evenodd" d="M109.075 219.826C109.063 219.439 109.05 219.051 109.038 218.664C109.051 219.052 109.063 219.439 109.075 219.826Z" fill="#66574B"/>
<path fill-rule="evenodd" clip-rule="evenodd" d="M236.728 219.532C236.457 219.872 236.109 219.671 235.793 219.693C236.105 219.639 236.417 219.586 236.728 219.532Z" fill="#66574B"/>
<path fill-rule="evenodd" clip-rule="evenodd" d="M199.627 207.14C199.215 207.382 198.799 207.415 198.38 207.157C198.796 207.151 199.211 207.146 199.627 207.14Z" fill="#66574B"/>
<path fill-rule="evenodd" clip-rule="evenodd" d="M226.751 220.414C226.336 220.409 225.92 220.405 225.504 220.4C225.92 220.405 226.336 220.409 226.751 220.414Z" fill="#66574B"/>
<path fill-rule="evenodd" clip-rule="evenodd" d="M114.057 205.108C114.049 205.496 114.041 205.884 114.032 206.27C114.04 205.881 114.048 205.494 114.057 205.108Z" fill="#66574B"/>
<path fill-rule="evenodd" clip-rule="evenodd" d="M185.729 226.023C185.745 225.635 185.761 225.247 185.777 224.861C185.761 225.25 185.745 225.636 185.729 226.023Z" fill="#66574B"/>
<path fill-rule="evenodd" clip-rule="evenodd" d="M228.623 203.687C228.207 203.731 227.791 203.774 227.375 203.817C227.791 203.774 228.207 203.731 228.623 203.687Z" fill="#66574B"/>
<path fill-rule="evenodd" clip-rule="evenodd" d="M125.905 202.397C125.896 202.009 125.888 201.621 125.879 201.235C125.888 201.624 125.896 202.01 125.905 202.397Z" fill="#66574B"/>
<path fill-rule="evenodd" clip-rule="evenodd" d="M177.995 172.573C177.971 172.961 177.946 173.349 177.922 173.735C177.947 173.347 177.971 172.961 177.995 172.573Z" fill="#66574B"/>
<path fill-rule="evenodd" clip-rule="evenodd" d="M234.858 184.294C234.441 184.562 234.026 184.528 233.611 184.291C234.026 184.292 234.442 184.293 234.858 184.294Z" fill="#66574B"/>
<path fill-rule="evenodd" clip-rule="evenodd" d="M185.469 238.03C185.451 237.642 185.432 237.254 185.414 236.868C185.432 237.256 185.451 237.643 185.469 238.03Z" fill="#66574B"/>
<path fill-rule="evenodd" clip-rule="evenodd" d="M185.461 241.128C185.448 240.741 185.435 240.353 185.422 239.966C185.435 240.355 185.448 240.741 185.461 241.128Z" fill="#66574B"/>
<path fill-rule="evenodd" clip-rule="evenodd" d="M126.509 190.003C126.513 189.615 126.518 189.226 126.522 188.841C126.517 189.229 126.513 189.616 126.509 190.003Z" fill="#66574B"/>
<path fill-rule="evenodd" clip-rule="evenodd" d="M215.216 251.79C215.424 251.783 215.633 251.775 215.839 251.769C215.63 251.777 215.423 251.783 215.216 251.79Z" fill="#66574B"/>
<path fill-rule="evenodd" clip-rule="evenodd" d="M114.693 255.072C114.676 254.684 114.659 254.296 114.643 253.91C114.66 254.298 114.676 254.685 114.693 255.072Z" fill="#66574B"/>
<path fill-rule="evenodd" clip-rule="evenodd" d="M182.168 258.356C182.377 258.361 182.586 258.366 182.792 258.372C182.582 258.367 182.375 258.361 182.168 258.356Z" fill="#66574B"/>
<path fill-rule="evenodd" clip-rule="evenodd" d="M182.297 225.248C182.315 224.086 182.332 222.924 182.349 221.763C182.331 222.925 182.314 224.086 182.297 225.248Z" fill="#66574B"/>
<path fill-rule="evenodd" clip-rule="evenodd" d="M157.989 182.644C158 183.548 158.01 184.452 158.022 185.355C158.011 184.45 158 183.546 157.989 182.644Z" fill="#66574B"/>
<path fill-rule="evenodd" clip-rule="evenodd" d="M104.223 239.373C103.703 239.381 103.181 239.389 102.664 239.397C103.186 239.39 103.704 239.382 104.223 239.373Z" fill="#66574B"/>
<path fill-rule="evenodd" clip-rule="evenodd" d="M146.937 162.325C146.416 162.314 145.895 162.304 145.378 162.294C145.9 162.305 146.419 162.315 146.937 162.325Z" fill="#66574B"/>
<path fill-rule="evenodd" clip-rule="evenodd" d="M133.531 177.416C134.051 177.416 134.571 177.415 135.09 177.414C134.57 177.414 134.051 177.415 133.531 177.416Z" fill="#66574B"/>
<path fill-rule="evenodd" clip-rule="evenodd" d="M140.39 161.909C139.973 161.918 139.556 161.927 139.143 161.935C139.561 161.926 139.975 161.918 140.39 161.909Z" fill="#66574B"/>
<path fill-rule="evenodd" clip-rule="evenodd" d="M106.718 239.39C106.301 239.387 105.884 239.384 105.471 239.381C105.889 239.384 106.303 239.387 106.718 239.39Z" fill="#66574B"/>
<path fill-rule="evenodd" clip-rule="evenodd" d="M162.838 41.5341C163.357 41.4891 163.877 41.4442 164.397 41.3993C163.877 41.4442 163.357 41.4891 162.838 41.5341Z" fill="#66574B"/>
<path fill-rule="evenodd" clip-rule="evenodd" d="M169.823 86.9764C169.843 86.3307 169.862 85.6851 169.881 85.0398C169.862 85.6858 169.843 86.3311 169.823 86.9764Z" fill="#66574B"/>
<path fill-rule="evenodd" clip-rule="evenodd" d="M157.225 92.9794C156.913 92.9794 156.6 92.9798 156.29 92.9802C156.604 92.9802 156.915 92.9798 157.225 92.9794Z" fill="#66574B"/>
<path fill-rule="evenodd" clip-rule="evenodd" d="M130.724 160.754C130.412 160.758 130.099 160.763 129.789 160.766C130.103 160.763 130.414 160.758 130.724 160.754Z" fill="#66574B"/>
<path fill-rule="evenodd" clip-rule="evenodd" d="M123.554 176.578C123.97 176.619 124.385 176.662 124.801 176.703C124.385 176.662 123.97 176.619 123.554 176.578Z" fill="#66574B"/>
<path fill-rule="evenodd" clip-rule="evenodd" d="M122.765 196.2C122.771 195.683 122.778 195.166 122.784 194.65C122.778 195.168 122.771 195.684 122.765 196.2Z" fill="#66574B"/>
<path fill-rule="evenodd" clip-rule="evenodd" d="M158.473 175.554C158.888 175.503 159.304 175.453 159.72 175.402C159.304 175.453 158.888 175.503 158.473 175.554Z" fill="#66574B"/>
<path fill-rule="evenodd" clip-rule="evenodd" d="M186.963 166.376C186.988 165.86 187.012 165.342 187.037 164.827C187.012 165.344 186.988 165.86 186.963 166.376Z" fill="#66574B"/>
<path fill-rule="evenodd" clip-rule="evenodd" d="M150.054 162.703C149.742 162.699 149.429 162.695 149.119 162.691C149.433 162.695 149.744 162.699 150.054 162.703Z" fill="#66574B"/>
<path fill-rule="evenodd" clip-rule="evenodd" d="M122.797 225.248C122.781 224.86 122.766 224.473 122.751 224.086C122.766 224.475 122.781 224.861 122.797 225.248Z" fill="#66574B"/>
<path fill-rule="evenodd" clip-rule="evenodd" d="M157.753 205.495C158.434 207.594 158.052 206.108 158.069 206.593C157.489 206.689 157.383 206.323 157.753 205.495Z" fill="#66574B"/>
<path fill-rule="evenodd" clip-rule="evenodd" d="M129.166 160.781C128.853 160.767 128.54 160.753 128.23 160.739C128.545 160.753 128.855 160.767 129.166 160.781Z" fill="#66574B"/>
<path fill-rule="evenodd" clip-rule="evenodd" d="M192.895 121.447C192.914 120.931 192.934 120.414 192.954 119.898C192.934 120.415 192.914 120.932 192.895 121.447Z" fill="#66574B"/>
<path fill-rule="evenodd" clip-rule="evenodd" d="M122.777 221.375C122.776 220.859 122.775 220.342 122.773 219.826C122.775 220.344 122.776 220.86 122.777 221.375Z" fill="#66574B"/>
<path fill-rule="evenodd" clip-rule="evenodd" d="M122.742 209.756C122.764 209.368 122.786 208.98 122.807 208.594C122.786 208.982 122.764 209.369 122.742 209.756Z" fill="#66574B"/>
<path fill-rule="evenodd" clip-rule="evenodd" d="M187.58 159.017C187.609 158.629 187.638 158.242 187.667 157.855C187.638 158.243 187.609 158.631 187.58 159.017Z" fill="#66574B"/>
<path fill-rule="evenodd" clip-rule="evenodd" d="M118.679 210.918C118.706 211.306 118.735 211.694 118.762 212.08C118.734 211.692 118.706 211.305 118.679 210.918Z" fill="#66574B"/>
<path fill-rule="evenodd" clip-rule="evenodd" d="M118.051 207.819C118.082 208.207 118.112 208.595 118.143 208.981C118.112 208.593 118.082 208.206 118.051 207.819Z" fill="#66574B"/>
<path fill-rule="evenodd" clip-rule="evenodd" d="M180.418 154.757C180.441 154.369 180.464 153.982 180.488 153.595C180.464 153.983 180.441 154.37 180.418 154.757Z" fill="#66574B"/>
<path fill-rule="evenodd" clip-rule="evenodd" d="M21.291 207.299C21.7063 207.259 22.1222 207.218 22.5381 207.177C22.1213 207.218 21.706 207.259 21.291 207.299Z" fill="#66574B"/>
<path fill-rule="evenodd" clip-rule="evenodd" d="M177.665 216.727C177.653 217.116 177.64 217.504 177.629 217.889C177.641 217.5 177.653 217.114 177.665 216.727Z" fill="#66574B"/>
<path fill-rule="evenodd" clip-rule="evenodd" d="M182.601 217.889C182.624 217.502 182.647 217.114 182.67 216.727C182.647 217.116 182.624 217.502 182.601 217.889Z" fill="#66574B"/>
<path fill-rule="evenodd" clip-rule="evenodd" d="M180.716 153.207C180.749 152.82 180.782 152.432 180.814 152.046C180.782 152.434 180.749 152.821 180.716 153.207Z" fill="#66574B"/>
<path fill-rule="evenodd" clip-rule="evenodd" d="M23.7852 206.927C24.2011 206.876 24.617 206.825 25.0323 206.775C24.617 206.825 24.2004 206.876 23.7852 206.927Z" fill="#66574B"/>
<path fill-rule="evenodd" clip-rule="evenodd" d="M155.978 162.305C155.769 162.308 155.56 162.311 155.354 162.314C155.564 162.311 155.771 162.308 155.978 162.305Z" fill="#66574B"/>
<path fill-rule="evenodd" clip-rule="evenodd" d="M122.777 206.27C122.776 205.882 122.775 205.494 122.773 205.108C122.775 205.496 122.776 205.883 122.777 206.27Z" fill="#66574B"/>
<path fill-rule="evenodd" clip-rule="evenodd" d="M183.283 205.495C183.172 205.095 183.118 204.7 183.331 204.333C183.315 204.721 183.299 205.108 183.283 205.495Z" fill="#66574B"/>
<path fill-rule="evenodd" clip-rule="evenodd" d="M177.972 198.136C177.963 198.524 177.954 198.912 177.945 199.298C177.954 198.91 177.963 198.523 177.972 198.136Z" fill="#66574B"/>
<path fill-rule="evenodd" clip-rule="evenodd" d="M178.241 236.481C178.261 236.868 178.28 237.256 178.3 237.643C178.28 237.254 178.261 236.867 178.241 236.481Z" fill="#66574B"/>
<path fill-rule="evenodd" clip-rule="evenodd" d="M201.186 95.6084C201.498 95.6638 201.809 95.7188 202.121 95.7738C201.809 95.7184 201.497 95.663 201.186 95.6084Z" fill="#66574B"/>
<path fill-rule="evenodd" clip-rule="evenodd" d="M199.938 95.6444C200.357 95.6758 200.816 95.426 201.186 95.792L199.938 95.6444Z" fill="#66574B"/>
<path fill-rule="evenodd" clip-rule="evenodd" d="M155.979 95.2363L157.226 95.3711C156.809 95.3262 156.394 95.2813 155.979 95.2363Z" fill="#66574B"/>
<path fill-rule="evenodd" clip-rule="evenodd" d="M135.4 177.314C135.817 177.316 136.232 177.318 136.647 177.321C136.23 177.57 135.814 177.595 135.4 177.314Z" fill="#66574B"/>
<path fill-rule="evenodd" clip-rule="evenodd" d="M124.057 242.29C124.034 241.902 124.01 241.514 123.986 241.128C124.01 241.517 124.034 241.903 124.057 242.29Z" fill="#66574B"/>
<path fill-rule="evenodd" clip-rule="evenodd" d="M169.534 95.8846C169.539 95.4965 169.543 95.1092 169.548 94.7227C169.543 95.1111 169.539 95.4981 169.534 95.8846Z" fill="#66574B"/>
<path fill-rule="evenodd" clip-rule="evenodd" d="M143.195 177.477C143.611 177.436 144.027 177.394 144.442 177.352C144.027 177.394 143.611 177.436 143.195 177.477Z" fill="#66574B"/>
<path fill-rule="evenodd" clip-rule="evenodd" d="M178.572 245.776C178.579 246.164 178.586 246.552 178.593 246.938C178.586 246.549 178.579 246.163 178.572 245.776Z" fill="#66574B"/>
<path fill-rule="evenodd" clip-rule="evenodd" d="M185.087 184.967C185.116 184.58 185.144 184.192 185.172 183.805C185.144 184.194 185.115 184.58 185.087 184.967Z" fill="#66574B"/>
<path fill-rule="evenodd" clip-rule="evenodd" d="M199.436 81.5539C199.46 81.1658 199.483 80.7785 199.507 80.392C199.483 80.7801 199.459 81.167 199.436 81.5539Z" fill="#66574B"/>
<path fill-rule="evenodd" clip-rule="evenodd" d="M169.844 48.2446C169.85 48.6323 169.855 49.0204 169.862 49.4066C169.856 49.0181 169.85 48.6312 169.844 48.2446Z" fill="#66574B"/>
<path fill-rule="evenodd" clip-rule="evenodd" d="M158.784 41.0146C159.2 41.0576 159.616 41.101 160.031 41.1436C159.616 41.1006 159.2 41.0576 158.784 41.0146Z" fill="#66574B"/>
<path fill-rule="evenodd" clip-rule="evenodd" d="M96.4297 261.151C96.8456 261.1 97.2609 261.05 97.6768 260.999C97.2609 261.05 96.8456 261.101 96.4297 261.151Z" fill="#66574B"/>
<path fill-rule="evenodd" clip-rule="evenodd" d="M159.408 37.2066C159.199 37.2062 158.99 37.2058 158.784 37.2058C158.994 37.2066 159.201 37.2066 159.408 37.2066Z" fill="#66574B"/>
<path fill-rule="evenodd" clip-rule="evenodd" d="M82.7109 266.196C83.1272 265.929 83.5424 266.005 83.958 266.197C83.5424 266.197 83.1262 266.196 82.7109 266.196Z" fill="#66574B"/>
<path fill-rule="evenodd" clip-rule="evenodd" d="M244.523 237.044C244.106 237.055 243.689 237.067 243.276 237.079C243.694 237.068 244.108 237.055 244.523 237.044Z" fill="#66574B"/>
<path fill-rule="evenodd" clip-rule="evenodd" d="M238.287 229.362C238.807 229.313 239.326 229.264 239.846 229.214C239.361 229.593 238.807 229.313 238.287 229.362Z" fill="#66574B"/>
<path fill-rule="evenodd" clip-rule="evenodd" d="M232.363 230.16C232.883 230.113 233.402 230.067 233.922 230.02C233.403 230.067 232.883 230.113 232.363 230.16Z" fill="#66574B"/>
<path fill-rule="evenodd" clip-rule="evenodd" d="M227.375 236.743C227.791 236.697 228.207 236.652 228.623 236.606C228.207 236.651 227.791 236.697 227.375 236.743Z" fill="#66574B"/>
<path fill-rule="evenodd" clip-rule="evenodd" d="M229.557 223.502C229.245 223.505 228.932 223.507 228.622 223.509C228.936 223.506 229.247 223.504 229.557 223.502Z" fill="#66574B"/>
<path fill-rule="evenodd" clip-rule="evenodd" d="M237.352 244.84C237.768 244.796 238.184 244.752 238.599 244.709C238.211 245.047 237.773 244.852 237.352 244.84Z" fill="#66574B"/>
<path fill-rule="evenodd" clip-rule="evenodd" d="M223.946 207.626C223.633 207.626 223.32 207.625 223.01 207.625C223.325 207.625 223.635 207.626 223.946 207.626Z" fill="#66574B"/>
<path fill-rule="evenodd" clip-rule="evenodd" d="M220.828 208.398C220.619 208.4 220.41 208.401 220.204 208.402C220.414 208.401 220.621 208.399 220.828 208.398Z" fill="#66574B"/>
<path fill-rule="evenodd" clip-rule="evenodd" d="M213.345 209.477C213.24 209.796 212.689 209.755 212.723 209.428C212.93 209.444 213.138 209.461 213.345 209.477Z" fill="#66574B"/>
<path fill-rule="evenodd" clip-rule="evenodd" d="M198.829 210.918C198.842 211.305 198.855 211.693 198.867 212.08C198.854 211.692 198.842 211.304 198.829 210.918Z" fill="#66574B"/>
<path fill-rule="evenodd" clip-rule="evenodd" d="M241.405 212.971C241.717 212.964 242.029 212.958 242.341 212.951C242.033 213.225 241.72 213.187 241.405 212.971Z" fill="#66574B"/>
<path fill-rule="evenodd" clip-rule="evenodd" d="M229.558 207.233C229.349 207.237 229.14 207.24 228.934 207.243C229.144 207.24 229.351 207.237 229.558 207.233Z" fill="#66574B"/>
<path fill-rule="evenodd" clip-rule="evenodd" d="M221.452 231.712C221.868 231.663 222.283 231.615 222.699 231.567C222.283 231.615 221.868 231.663 221.452 231.712Z" fill="#66574B"/>
<path fill-rule="evenodd" clip-rule="evenodd" d="M225.816 246.438C226.233 246.249 226.649 246.184 227.064 246.443C226.648 246.441 226.232 246.44 225.816 246.438Z" fill="#66574B"/>
<path fill-rule="evenodd" clip-rule="evenodd" d="M225.155 193.05L224.569 192.798C225.297 192.787 226.024 192.776 226.752 192.765C226.753 192.765 225.239 193.058 225.155 193.05Z" fill="#66574B"/>
<path fill-rule="evenodd" clip-rule="evenodd" d="M219.581 186.324C219.06 186.323 218.539 186.323 218.022 186.322C218.544 186.323 219.062 186.324 219.581 186.324Z" fill="#66574B"/>
<path fill-rule="evenodd" clip-rule="evenodd" d="M199.938 201.129C200.457 200.871 200.977 200.921 201.497 201.122C200.978 201.124 200.458 201.127 199.938 201.129Z" fill="#66574B"/>
<path fill-rule="evenodd" clip-rule="evenodd" d="M231.428 194.837C231.115 194.842 230.802 194.846 230.493 194.851C230.807 194.846 231.117 194.842 231.428 194.837Z" fill="#66574B"/>
<path fill-rule="evenodd" clip-rule="evenodd" d="M224.881 189.745C225.401 189.788 225.921 189.83 226.44 189.872C225.92 189.829 225.4 189.788 224.881 189.745Z" fill="#66574B"/>
<path fill-rule="evenodd" clip-rule="evenodd" d="M218.957 189.358C219.373 189.4 219.789 189.443 220.204 189.485C219.788 189.442 219.373 189.4 218.957 189.358Z" fill="#66574B"/>
<path fill-rule="evenodd" clip-rule="evenodd" d="M213.034 196.789C212.825 196.783 212.617 196.778 212.41 196.772C212.62 196.778 212.827 196.783 213.034 196.789Z" fill="#66574B"/>
<path fill-rule="evenodd" clip-rule="evenodd" d="M219.581 192.931C219.372 192.916 219.163 192.899 218.957 192.883C219.167 192.899 219.374 192.916 219.581 192.931Z" fill="#66574B"/>
<path fill-rule="evenodd" clip-rule="evenodd" d="M215.528 192.918C215.319 192.911 215.11 192.903 214.904 192.897C215.114 192.904 215.321 192.911 215.528 192.918Z" fill="#66574B"/>
<path fill-rule="evenodd" clip-rule="evenodd" d="M226.751 192.558C226.751 192.658 227.691 192.149 227.687 192.622L226.751 192.558Z" fill="#66574B"/>
<path fill-rule="evenodd" clip-rule="evenodd" d="M223.322 186.322C223.113 186.323 222.905 186.323 222.699 186.324C222.909 186.323 223.115 186.323 223.322 186.322Z" fill="#66574B"/>
<path fill-rule="evenodd" clip-rule="evenodd" d="M112.642 167.955C112.979 166.243 112.887 164.904 114.09 165.998C114.75 166.599 115.838 169.644 115.755 170.675C115.653 171.947 115.186 172.454 114.222 172.05C113.114 171.583 112.675 169.235 112.642 167.955Z" fill="#66574B"/>
<path fill-rule="evenodd" clip-rule="evenodd" d="M173.385 157.564C176.177 157.564 174.959 161.255 172.631 161.338C171.562 161.376 170.023 161.114 170.37 159.335C170.555 158.386 173.268 157.106 173.385 157.564Z" fill="#66574B"/>
<path fill-rule="evenodd" clip-rule="evenodd" d="M143.437 164.827C145.453 166.039 142.617 171.358 140.785 170.041C138.44 168.356 142.608 165.586 143.437 164.827Z" fill="#66574B"/>
<path fill-rule="evenodd" clip-rule="evenodd" d="M138.533 169.862C139.193 170.756 142.166 173.787 140.527 175.006C138.512 176.504 136.978 171.557 138.533 169.862Z" fill="#66574B"/>
<path fill-rule="evenodd" clip-rule="evenodd" d="M104.747 167.538C104.091 165.963 104.993 161.841 106.995 162.594C109.01 163.353 105.855 167.12 104.747 167.538Z" fill="#66574B"/>
<path fill-rule="evenodd" clip-rule="evenodd" d="M149.225 168.446C150.533 167.792 150.284 169.727 150.481 170.351C150.705 171.059 151.856 172.786 151.568 173.54C151.139 174.66 150.115 173.946 149.559 173.22C148.584 171.945 148.653 169.901 149.225 168.446Z" fill="#66574B"/>
<path fill-rule="evenodd" clip-rule="evenodd" d="M129.303 170.239C128.214 170.239 125.613 166.336 127.141 165.681C129.038 164.869 130.624 170.526 129.303 170.239Z" fill="#66574B"/>
<path fill-rule="evenodd" clip-rule="evenodd" d="M166.955 164.052C167.953 164.358 169.274 167.868 167.77 168.275C166.105 168.726 165.808 165.023 166.955 164.052Z" fill="#66574B"/>
<path fill-rule="evenodd" clip-rule="evenodd" d="M160.905 170.637C160.122 168.765 159.929 164.757 161.84 167.974C162.254 168.67 162.681 168.388 162.469 169.538C162.283 170.542 161.541 170.637 160.905 170.637Z" fill="#66574B"/>
<path fill-rule="evenodd" clip-rule="evenodd" d="M119.683 160.954C120.481 162.445 120.246 167.122 118.579 164.356C117.87 163.18 118.358 161.01 119.683 160.954Z" fill="#66574B"/>
<path fill-rule="evenodd" clip-rule="evenodd" d="M159.778 20.3958C161.326 19.8995 161.697 24.4322 160.795 24.9318C159.531 25.6311 159.689 21.154 159.778 20.3958Z" fill="#66574B"/>
<path fill-rule="evenodd" clip-rule="evenodd" d="M257.666 250.675C256.23 250.571 254.218 250.084 256.394 248.818C257.774 248.016 259.826 247.96 261.284 248.289C262.289 248.516 263.796 249.551 262.263 250.892C261.365 251.676 258.757 250.714 257.666 250.675Z" fill="#66574B"/>
<path fill-rule="evenodd" clip-rule="evenodd" d="M256.056 253.91C255.641 253.852 255.226 253.793 254.812 253.736C255.145 252.985 256.112 252.827 256.056 253.91Z" fill="#66574B"/>
<path fill-rule="evenodd" clip-rule="evenodd" d="M257.929 250.601C258.346 250.612 258.763 250.624 259.176 250.635C258.758 250.623 258.344 250.612 257.929 250.601Z" fill="#66574B"/>
</svg>
