<svg width="466" height="279" viewBox="0 0 466 279" fill="none" xmlns="http://www.w3.org/2000/svg">
<path fill-rule="evenodd" clip-rule="evenodd" d="M285.583 225.116C283.752 227.586 281.049 229.419 278.975 231.677C276.798 234.049 274.434 236.121 272.265 238.465C262.696 224.82 249.587 216.453 238.231 205.131C232.848 199.762 228.881 192.481 225.978 185.008C224.49 181.177 223.391 177.235 222.531 173.154C222.143 171.315 221.764 169.483 221.511 167.62C221.204 165.364 221.125 165.171 219.82 163.41C219.258 162.652 218.17 160.438 217.07 160.682C216.144 160.887 214.451 164.176 213.865 164.988C211.052 168.894 208.323 172.92 205.361 176.675C200.828 182.421 196.702 188.075 192.493 194.166C183.885 206.626 174.598 218.355 165.228 230.079C164.533 230.948 162.912 233.498 161.913 233.841C160.699 234.257 158.726 232.52 157.504 231.549C154.552 229.205 152.226 226.303 149.703 223.398C144.78 217.729 141.446 209.77 139.204 202.198C137.861 197.666 136.988 192.968 135.603 188.451C135.025 186.568 133.716 184.254 134.381 182.615C134.579 182.126 135.838 180.827 136.282 180.728C136.808 180.61 137.683 181.45 137.866 181.392C139.608 180.836 138.641 178.708 139.678 177.563C140.265 176.913 143.254 177.008 144.146 176.651C147.409 175.345 150.336 172.855 153.42 171.368C166.332 165.144 179.401 159.09 190.548 148.927C193.439 146.292 195.36 144.311 198.809 142.608C202.295 140.887 205.799 139.351 209.356 137.849C212.494 136.524 215.649 135.281 218.891 134.332C222.396 133.304 227.369 132.002 230.872 133.325C237.75 135.923 239.971 142.535 242.71 149.51C246.416 158.946 250.896 167.876 255.754 176.562C265.099 193.273 276.464 208.269 285.583 225.116Z" fill="#EFA25C"/>
<path fill-rule="evenodd" clip-rule="evenodd" d="M78.4413 77.3756C78.0628 77.1515 75.1079 78.5547 74.6119 78.7693C72.6307 79.6269 70.7645 81.0518 68.898 82.2111C70.3285 84.2421 71.7594 86.2737 73.1895 88.3052C74.5916 84.2927 76.3937 80.9819 78.4413 77.3756ZM79.4167 102.34C78.93 102.404 83.0391 113.924 83.5189 115.218C85.2651 119.922 87.0984 124.581 88.8676 129.274C90.5818 133.822 92.7563 138.005 94.947 142.253C96.8208 145.887 98.7481 151.525 101.575 154.216C99.7899 144.979 100.025 134.358 94.9061 126.602C89.5999 118.562 84.3537 110.71 79.4167 102.34ZM285.582 225.527C277.653 210.878 267.727 197.918 259.458 183.531C254.829 175.475 250.322 167.316 246.425 158.741C243.591 152.503 241.829 143.603 237.45 138.834C235.521 136.733 233.46 134.676 230.871 133.735C227.328 132.447 222.449 133.724 218.89 134.742C212.258 136.639 205.778 139.586 199.496 142.68C193.124 145.818 187.687 151.456 181.93 155.985C175.753 160.844 169.068 164.384 162.148 167.482C156.123 170.18 150.763 174.054 144.77 176.769C143.576 177.311 141.139 177.231 140.137 177.937C139.057 178.697 139.482 180.941 138.172 181.768C137.581 182.142 137.384 180.788 136.93 180.81C136.375 180.837 135.868 181.597 135.334 182.079C133.155 184.039 134.49 185.346 135.352 188.044C138.163 196.834 139.674 205.777 143.621 214.075C146.866 220.896 151.511 227.008 156.979 231.523C157.811 232.211 160.522 234.873 161.498 234.696C162.377 234.537 164.166 231.811 164.773 231.071C167.526 227.711 170.043 224.097 172.795 220.733C177.048 215.533 181.141 210.193 185.268 204.922C190.059 198.803 194.299 191.87 198.614 185.332C200.599 182.324 203.154 179.874 205.36 177.085C208.327 173.335 211.051 169.304 213.865 165.398C214.716 164.216 216.142 161.193 217.465 161.228C218.393 161.253 220.027 163.8 220.512 164.598C222.315 167.565 222.307 172.922 223.203 176.626C225.391 185.656 229.335 194.475 234.744 201.443C240.123 208.373 247.014 213.301 253.376 218.87C260.268 224.905 266.798 231.08 272.264 238.875C274.433 236.532 276.797 234.459 278.974 232.087C281.049 229.829 283.752 227.996 285.582 225.527ZM183.516 266.97C185.057 266.988 187.668 268.095 189.047 267.429C184.956 262.148 181.2 257.618 176.024 253.748C170.654 249.732 165.301 245.752 160.085 241.469C149.573 232.837 141.841 222.6 137.45 208.225C136.319 204.523 135.562 200.641 134.733 196.835C134.287 194.786 133.4 185.198 131.893 184.37C131 183.879 124.281 189.389 123.217 190.075C120.728 191.681 118.229 192.926 115.656 194.183C110.125 196.885 104.423 198.946 98.5576 200.666C91.5256 202.729 86.7357 199.316 82.3794 192.868C77.4372 185.552 73.3301 177.298 68.8113 169.615C66.7564 166.121 65.054 162.632 63.5364 158.778C62.5431 156.257 58.6038 149.453 59.965 146.766C63.8484 150.215 65.2457 157.074 67.891 161.693C71.188 167.449 74.9036 172.876 78.2176 178.626C81.0044 183.462 83.8476 189.322 87.9648 192.798C91.5864 195.856 95.0268 194.916 98.9244 193.541C103.648 191.876 108.545 191.056 113.174 188.99C118.184 186.755 122.924 183.585 127.812 181C130.091 179.794 132.819 179.109 134.966 177.606C136.817 176.312 136.541 175.628 136.677 172.871C136.836 169.655 137.019 166.436 137.14 163.217C137.222 161.054 136.22 158.122 136.9 156.507C131.351 157.63 125.927 159.133 120.417 160.463C117.4 161.191 114.491 162.091 111.443 162.663C110.281 162.881 108.693 162.875 107.653 163.465C106.823 163.187 106.4 163.364 106.384 163.995C106.344 164.338 106.281 164.676 106.195 165.009C104.493 165.912 103.504 163.975 102.028 162.117C100.207 159.824 98.8429 157.241 97.5069 154.547C94.5195 148.523 91.0762 142.857 88.3117 136.663C85.494 130.349 83.2057 123.589 80.8168 117.039C78.6253 111.029 77.222 104.529 74.8003 98.6613C73.7195 96.0421 72.3498 93.8763 70.7504 91.6638C69.4305 89.8379 67.3999 85.8992 65.4288 85.0605C64.9077 84.8388 63.5429 85.2113 62.9508 85.1622C61.7708 85.0638 60.7192 84.5584 59.5116 84.6691C56.897 84.9078 54.0466 86.8367 51.9572 88.5326C53.3074 89.9367 56.6851 91.6434 54.2589 94.1728C51.9045 96.6284 50.6041 92.2235 49.7057 90.2937C45.475 94.3467 46.0865 99.9354 45.5978 105.662C45.3425 108.652 44.671 111.596 44.2378 114.541C43.9258 116.661 44.1446 118.853 44.0555 121.017C43.8282 126.516 43.3544 131.779 43.3775 137.201C43.4018 142.996 43.7402 148.593 44.1378 154.346C44.8068 164.032 46.3398 173.722 47.6544 183.331C48.3939 188.732 49.4062 193.98 50.3889 199.294C51.5041 205.325 53.5672 211.038 54.7241 217.054C55.9029 215.305 56.7896 215.297 58.6962 215.528C60.1628 215.707 61.1479 215.3 61.062 217.674C61.0065 219.215 59.8418 220.391 58.5532 220.66C56.8727 221.01 56.3017 220.032 55.4357 218.547C55.2331 221.359 56.854 224.299 57.4951 227.046C58.1018 229.648 58.5037 232.199 59.5233 234.69C60.5182 237.12 61.37 239.517 62.3766 241.924C62.8402 243.032 63.2738 244.156 63.7426 245.261C63.9797 245.82 64.2589 246.591 64.6127 247.062C65.4426 248.167 65.3105 247.632 66.2818 248.261C68.398 249.632 67.6033 249.291 67.6527 252.123C67.701 254.916 68.9288 256.968 70.8979 258.539C75.0754 261.871 79.1959 262.797 83.9452 264.481C88.3704 266.05 93.0314 267.396 97.7172 267.365C103.456 267.327 109.119 266.449 114.858 266.361C121.189 266.263 127.581 266.303 133.9 266.558C136.503 266.663 138.92 266.798 141.433 267.574C144.351 268.475 147.174 268.117 150.181 267.981C156.598 267.69 163.236 267.11 169.568 267.058C174.128 267.021 178.939 266.649 183.516 266.97ZM349.9 269.872C351.041 270.575 353.598 270.287 354.745 270.091C356.765 269.748 356.982 268.813 358.263 266.712C360.469 263.093 362.261 259.627 363.558 255.435C366.043 247.411 367.057 239.203 368.147 230.81C369.359 221.484 367.146 211.817 366.354 202.554C366.172 200.429 365.923 198.324 365.636 196.215C365.463 194.954 365.418 190.664 364.707 189.573C363.341 187.475 356.987 189.167 354.488 189.357C347.515 189.888 340.496 190.013 333.526 190.105C329.81 190.154 326.073 190.336 322.393 190.369C320.703 190.385 319.051 190.287 317.355 190.095C316.788 190.031 316.234 189.879 315.663 189.842C313.706 189.716 313.853 189.385 313.347 191.406C312.462 194.947 313.143 199.452 312.911 203.127C312.599 208.039 312.431 213.019 312.508 217.941C312.579 222.489 312.447 227.027 312.592 231.585C312.653 233.473 312.829 235.011 313.256 236.814C313.739 238.852 314.27 243.614 315.472 245.024C315.608 245.185 316.63 244.811 316.901 245.211C317.319 245.827 317.242 247.13 317.529 247.528C318.457 248.817 320.376 248.919 321.768 249.498C325.587 251.087 329.091 252.812 332.691 254.955C335.907 256.869 341.093 258.498 343.027 262.275C343.913 264.006 344.033 266.289 344.848 268.075C345.777 270.11 343.919 269.046 346.194 269.872C347.218 270.243 348.85 269.872 349.9 269.872ZM10.8177 246.858C10.5283 251.557 8.25942 256.033 7.46962 260.653C7.10004 262.816 6.47315 264.943 6.03873 267.093C5.62215 269.157 4.11711 271.6 4.26947 273.641C9.82444 271.332 15.4511 270.752 21.2569 270.129C26.7596 269.539 32.5727 269.304 38.0292 269.301C43.5895 269.297 49.5347 268.664 55.2598 268.566C61.2472 268.463 67.3249 268.282 73.2255 267.558C70.1401 264.892 66.2794 262.388 64.0012 258.679C61.5244 254.646 60.2382 249.594 58.0588 245.339C53.6855 236.8 50.9052 226.205 48.6128 216.612C43.9846 197.246 38.8126 178.238 37.566 158.151C35.1938 159.568 33.3107 165.067 32.1229 167.805C30.6069 171.301 29.8131 175.091 28.8276 178.807C26.7981 186.461 25.3936 194.397 22.9087 201.978C18.1593 216.469 15.1067 232.084 10.8177 246.858ZM312.358 133.989C313.385 142.651 315.54 151.424 315.622 160.19C315.641 162.118 315.361 164.26 315.705 166.161C316.073 168.191 317.27 169.986 317.961 171.915C319.057 174.978 321.834 181.255 319.156 183.851C319.102 181.388 317.17 178.26 316.197 176.107C314.73 172.862 312.804 169.896 311.214 166.731C307.886 160.108 304.157 153.627 299.868 147.788C295.691 142.101 290.877 137.056 286.447 131.64C285.117 130.013 274.44 114.351 274.016 114.57C277.328 129.469 282.957 142.433 290.661 154.907C294.438 161.023 298.972 165.047 303.57 170.228C307.399 174.542 314.616 179.155 313.292 186.225C319.278 185.553 325.224 184.481 331.264 184.481C330.271 175.562 329.51 166.784 327.737 158.012C325.724 148.051 324.36 137.792 322.656 127.743C320.918 117.484 317.969 107.552 316.135 97.312C314.378 87.5067 312.869 77.7188 311.581 67.8042C310.517 73.2979 310.909 79.3319 310.532 84.9371C310.146 90.6638 310.183 96.2851 310.312 102.045C310.55 112.745 311.527 123.315 312.358 133.989ZM338.296 82.9779C338.329 78.3982 339.09 73.8803 339.325 69.3114C339.397 67.9097 340.593 58.3459 339.477 57.8467C338.559 60.1812 338.346 63.1687 337.512 65.6181C336.679 68.0652 335.565 70.3965 334.766 72.8606C333.035 78.1987 332.438 84.2388 332.251 89.914C331.829 102.751 331.611 115.559 332.351 128.396C332.668 133.898 332.911 139.409 332.824 144.922C332.729 150.988 331.933 156.254 332.9 162.27C333.857 168.228 334.458 174.162 334.777 180.206C335.001 184.449 335.091 184.149 338.56 183.851C341.065 183.635 343.595 183.865 346.103 183.731C344.93 167.196 344.739 150.626 342.865 134.153C341.909 125.75 341.884 117.225 340.696 108.852C340.106 104.693 339.116 100.618 338.547 96.4544C337.937 91.9838 338.237 87.483 338.296 82.9779ZM84.5746 72.5717C91.2541 73.2468 98.3591 75.5766 105.206 74.0382C104.077 73.505 101.124 72.7693 102.453 70.6645C103.804 68.5243 106.082 71.2389 107.429 70.9586C108.261 70.7856 110.097 66.7325 110.609 65.8933C111.772 63.9861 111.912 63.6537 114.003 63.1649C116.028 62.6921 116.487 63.2041 116.744 60.8549C117.038 58.1535 116.237 55.1164 116.317 52.354C116.487 46.4069 118.132 41.1917 119.662 35.5965C113.159 37.2469 106.801 39.2042 100.152 40.2679C97.3095 40.7228 92.8876 41.7718 90.3054 39.5177C89.6339 38.9314 89.7413 38.14 89.1918 37.4606C88.2703 36.3207 86.561 35.1417 85.2542 34.8169C77.2114 32.8194 76.4269 46.1956 80.4574 51.2009C81.4668 52.4551 82.8714 53.0745 83.9051 54.2238C85.285 55.7565 85.398 57.371 85.5994 59.7108C85.9771 64.0982 85.4641 68.5025 83.8597 72.5159L84.5746 72.5717ZM182.174 135.72C184.548 136.246 187.026 136.126 189.406 136.575C190.252 136.734 192.787 137.29 193.531 136.713C194.667 135.832 195.07 132.602 195.607 131.097C196.551 128.451 197.887 126.143 198.788 123.449C202.467 112.444 205.898 101.394 210.349 90.765C208.643 90.2478 207.333 90.2275 205.614 89.9603C203.824 89.6819 202.2 88.4465 200.492 87.9156C198.868 87.4111 197.167 87.5397 195.558 86.953C194.672 86.6301 193.911 85.912 193.037 85.6609C191.645 85.2614 190.019 85.0279 189.191 86.0945C188.342 87.1885 188.044 90.1882 187.582 91.6013C186.352 95.3661 184.923 98.9993 183.892 102.851C182.962 106.324 182.079 109.761 181.26 113.266C180.395 116.966 178.691 120.016 177.653 123.551C176.863 126.242 176.118 128.992 176 131.861C175.885 134.66 175.536 134.838 177.935 135.286C179.146 135.511 181.034 136.351 182.174 135.72ZM338.388 266.734C339.006 267.07 339.589 267.025 340.136 266.599C334.775 263.957 329.56 260.293 323.967 258.481C318.72 256.781 313.621 254.75 308.566 252.657C304.459 250.956 300.767 249.631 297.054 246.638C294.8 244.821 292.797 242.777 291.249 240.122C289.524 237.165 289.141 232.957 287.273 230.295C284.753 233.524 281.792 235.97 278.81 238.536C277.778 239.424 275.303 241.359 274.95 242.733C274.505 244.467 275.698 246.125 276.288 247.88C277.799 252.373 278.537 256.864 279.357 261.535C279.686 263.408 280.395 266.222 281.714 267.006C282.914 267.72 286.39 267.201 287.884 267.069C295.676 266.38 303.331 265.675 311.17 266.302C320.042 267.012 329.539 267.502 338.388 266.734ZM353.952 183.472C355.369 183.478 356.752 183.271 358.163 183.271C357.349 178.834 359.253 173.093 359.928 168.664C360.683 163.71 361.258 158.587 361.762 153.593C362.824 143.074 363.305 132.683 363.319 122.087C363.332 111.834 364.931 102.465 367.172 92.6084C369.579 82.0229 373.519 72.5036 376.777 62.295C373.203 64.4991 371.225 69.6566 369.347 73.5995C366.973 78.5849 365.392 84.105 364.423 89.7017C362.553 100.498 360.501 111.328 358.344 122.107C356.096 133.33 354.775 144.656 352.201 155.788C350.946 161.216 349.239 167.894 349.144 173.493C349.105 175.808 348.507 180.658 349.406 182.669C350.248 184.551 352.108 183.664 353.952 183.472ZM140.17 169.547C140.095 170.7 140.025 171.796 139.849 172.935C141.811 172.913 144.296 170.538 145.978 169.472C148.028 168.173 150.08 166.741 152.085 165.436C155.955 162.915 160.348 161.254 164.481 159.183C169.227 156.804 173.591 153.93 178.13 151.066C179.716 150.065 191.112 144.302 190.921 142.728C188.419 142.63 185.917 142.533 183.414 142.436C181.269 142.353 177.947 142.919 175.893 142.145C174.768 141.721 173.505 140.16 173.08 138.938C172.66 137.729 173.605 132.167 173.056 131.812C170.256 135.148 168.495 139.581 165.991 143.179C163.225 147.156 159.65 149.478 155.71 151.592C151.359 153.926 146.855 155.733 142.409 157.734C140.533 158.577 140.57 159.06 140.407 161.459C140.224 164.14 140.244 166.859 140.17 169.547ZM366.27 270.418C370.986 271.009 375.82 270.672 380.573 271.133C382.303 271.3 384.701 271.55 382.961 274.258C381.865 275.964 378.355 275.417 376.763 275.535C372.488 275.852 367.962 275.681 363.677 275.608C362.775 275.592 361.778 275.28 360.867 275.35C359.814 275.431 358.554 276.314 357.595 276.307C357.003 276.303 356.791 275.575 356.282 275.509C355.171 275.363 354.061 275.257 352.94 275.257C336.006 275.262 319.304 274.864 302.411 274.843C294.333 274.833 286.126 274.671 278.052 274.228C276.356 274.135 266.7 274.54 266.968 270.978C267.105 269.143 270.257 268.885 271.407 268.69C272.259 268.546 273.143 268.568 273.997 268.515C276.266 268.373 277.259 269.01 276.781 266.114C274.966 255.131 271.713 246.054 264.764 238.156C259.082 231.699 252.24 225.841 245.804 220.449C237.989 213.901 231.65 207.014 227.01 196.995C224.301 191.144 222.033 185.162 220.641 178.692C220.14 176.365 220.128 173.718 219.514 171.474C219.042 169.746 217.966 168.537 217.332 166.748C209.557 181.898 199.253 194.574 189.804 208.234C185.289 214.761 180.139 220.959 174.745 226.637C173.144 228.322 171.651 230.081 170.157 231.894C168.907 233.411 166.923 234.76 165.868 236.444C164.855 238.059 165.105 237.982 166.645 239.264C168.682 240.959 170.927 242.368 172.995 244.021C176.302 246.663 179.911 248.895 182.868 252.075C186.066 255.514 188.859 259.498 191.654 263.376C193.517 265.96 195.962 269.277 196.43 272.545C196.585 273.626 197.175 276.3 196.397 277.092C195.732 277.768 195.799 277.511 194.974 277.099C193.893 276.558 193.575 275.317 192.254 274.725C188.875 273.213 184.786 273.732 181.269 273.714C177.752 273.695 174.205 274.156 170.69 274.139C162.661 274.101 154.803 274.859 146.777 275.266C138.253 275.698 129.624 274.661 121.128 274.808C114.833 274.917 108.37 274.368 101.901 274.776C98.5738 274.985 95.306 274.5 92.0617 274.446C87.814 274.374 83.4517 275.048 79.1675 275.144C72.1359 275.303 65.1901 275.302 58.1155 275.499C42.8981 275.924 27.763 276.363 12.5367 276.644C10.5056 276.681 8.28212 276.601 6.27499 276.868C4.14466 277.151 5.24447 277.679 3.78279 278.574C-0.30928 281.079 0.63573 271.795 0.733797 269.969C1.25979 260.185 3.3889 250.588 5.94755 241.299C8.37491 232.489 10.3456 223.268 12.4013 214.267C14.6516 204.416 17.5835 194.968 20.2459 185.214C22.9739 175.219 25.195 164.834 30.1498 155.973C31.2784 153.956 32.4447 151.784 34.2601 150.512C36.2952 149.086 36.3828 149.919 36.3811 147.308C36.3799 144.85 36.5096 141.566 36.0124 139.22C35.563 137.1 35.6323 138.357 34.6204 136.835C33.797 135.596 32.9354 134.75 32.3446 133.247C28.7153 137.54 20.4076 135.274 16.9011 132.183C12.6092 128.399 9.34019 122.015 8.14231 115.935C7.18028 111.053 8.36073 101.746 12.9926 99.3983C15.2505 98.2538 23.5441 97.3886 23.876 93.6584C24.047 91.7328 21.1281 89.0252 20.4546 87.3695C19.2065 84.3022 18.0078 80.2221 17.6609 76.8598C16.9833 70.2967 19.5371 62.9578 23.6053 58.5246C31.0681 50.3919 44.1989 46.2183 53.7986 51.3782C51.77 42.3373 50.5453 34.5379 51.5669 25.1335C52.4471 17.0315 56.5444 12.4986 62.1825 8.46298C71.8036 1.57545 84.887 -1.143 95.8879 0.859672C98.3878 1.31495 100.787 2.29123 103.102 3.068C106.464 4.19651 110.49 3.82066 113.665 5.65422C115.967 6.98319 117.715 9.63073 119.737 11.3984C122.097 13.4621 124.059 16.5422 125.699 19.3907C129.206 25.4819 127.835 36.7869 124.9 42.9013C124.271 44.2128 123.493 45.3167 122.452 46.2117C121.367 47.143 119.714 47.4328 119.155 48.6408C117.724 51.7351 119.105 58.4338 119.296 61.7783C119.518 65.6616 117.835 68.5786 114.061 68.8883C111.877 69.068 111.808 67.5901 110.762 70.631C110.085 72.602 109.469 74.7493 108.491 76.5562C106.475 80.2803 102.783 79.9167 99.4192 79.816C95.5257 79.6988 91.6905 78.9811 87.795 78.5282C88.8239 82.3742 91.6403 85.3593 93.399 88.7855C95.7769 93.4196 97.2082 97.2609 97.5948 102.66C97.8914 106.808 97.2511 110.084 94.8181 113.171C93.8111 114.449 92.9184 114.512 93.1684 115.986C93.3208 116.885 94.6536 118.369 95.1253 119.087C96.373 120.985 97.8217 122.728 98.9199 124.756C103.146 132.557 104.394 144.45 104.404 153.532C104.405 153.949 104.595 154.834 104.438 155.265C104.321 155.583 103.434 156.591 103.421 156.677C103.248 157.845 104.224 159.847 105.755 160.045C107.363 160.252 110.309 158.687 111.805 158.172C114.199 157.349 116.64 156.741 119.028 155.895C122.887 154.529 126.727 153.44 130.649 152.369C132.422 151.886 134.204 151.483 135.982 151.031C138.008 150.517 138.949 149.523 139.994 151.927C140.891 153.99 140.333 154.364 142.506 153.324C144.663 152.291 146.771 151.011 148.877 149.845C152.591 147.79 157.014 145.957 160.219 142.922C165.563 137.86 167.542 129.797 172.658 124.425C174.082 122.929 174.932 122.902 175.832 120.83C176.796 118.612 177.294 115.768 177.8 113.383C178.688 109.205 179.32 105.013 180.125 100.839C181.128 95.6398 183.296 90.931 184.877 85.9715C185.494 84.0393 185.813 81.5832 186.807 79.8467C187.07 79.3863 187.574 79.1267 187.779 78.7457C188.486 77.4375 188.479 77.0782 188.662 75.5043C189.519 68.1503 193.282 72.019 197.393 73.7054C199.126 74.416 207.352 79.0241 204.211 82.0886C207.955 83.3562 213.952 82.6673 213.902 88.9278C213.876 92.1356 212.231 95.567 211.349 98.5696C210.565 101.236 209.807 103.912 209.011 106.574C207.266 112.404 205.15 118.061 203.447 123.909C202.671 126.575 202.031 129.303 200.95 131.818C199.998 134.038 197.691 136.484 197.311 138.91C207.289 133.944 216.52 126.763 227.688 127.221C232.579 127.421 237.017 129.82 239.718 134.836C243.104 141.124 245.332 148.164 248.641 154.51C260.681 177.595 275.041 198.568 288.258 220.697C289.274 222.398 290.579 224.006 290.931 226.107C291.161 227.478 290.715 228.85 290.991 230.167C291.563 232.904 294.452 236.322 296.411 237.895C300.165 240.91 306.27 245.163 310.955 244.787C308.014 236.542 308.054 227.508 308.19 218.712C308.32 210.358 309.094 202.071 310.013 193.802C310.221 191.932 310.402 190.198 310.863 188.384C311.392 186.304 312.118 186.501 310.534 184.632C308.096 181.752 305.196 179.383 302.738 176.468C297.423 170.164 291.975 165.223 287.791 157.695C283.813 150.535 279.615 143.168 276.67 135.327C273.638 127.255 272.426 118.635 270.921 110.087C270.31 106.618 268.083 102.746 268.53 99.1232C269.096 94.5453 270.916 97.8789 271.656 100.342C273.917 107.863 279.21 114.594 283.593 120.642C288.33 127.176 294.123 132.642 299.066 138.986C304.45 145.895 308.138 153.835 312.925 161.211C312.925 152.058 310.247 142.738 309.151 133.683C308.187 125.713 307.884 117.719 307.275 109.715C305.891 91.5328 307.087 72.8152 309.029 54.7632C309.952 46.1899 309.428 37.8185 309.456 29.2159C309.465 26.4781 308.494 20.1679 309.732 17.7383C312.103 13.0848 313.486 23.2603 313.606 24.7775C314.323 33.815 313.037 42.7519 313.694 51.7507C314.38 61.148 315.87 70.2816 317.138 79.5702C318.511 89.6275 320.747 99.4579 322.887 109.322C325.134 119.679 327.024 130.253 329.523 140.527C330.197 137.297 329.252 133.33 329.065 130.041C328.798 125.334 328.277 120.626 328.232 115.907C328.16 108.385 328.11 100.724 328.475 93.2381C328.834 85.859 328.726 78.1268 330.665 71.0177C331.586 67.6435 332.936 64.3516 334.258 61.1731C335.887 57.2538 336.464 53.4536 337.366 49.2852C338.139 45.7153 339.271 42.2394 339.786 38.5981C340.106 36.3335 340.999 29.6485 343.222 34.7133C344.512 37.653 343.954 42.0111 343.99 45.1692C344.037 49.218 343.505 53.1548 343.424 57.1867C343.266 65.0971 343.152 72.9981 342.646 80.8954C342.115 89.1807 342.579 96.6061 343.93 104.77C345.408 113.706 345.841 122.662 346.607 131.708C347.003 136.378 347.669 141.023 347.991 145.7C348.161 148.177 347.288 155.279 348.809 157.043C348.956 152.753 350.01 148.46 350.809 144.279C351.755 139.327 352.137 134.121 352.834 129.098C353.964 120.959 356.155 113.187 357.605 105.14C360.594 88.5519 363.077 67.2322 375.602 56.3744C377.241 54.9537 379.042 53.9051 380.813 52.736C381.816 52.0741 383.306 50.3617 384.454 50.0629C385.707 49.7367 386.229 49.9901 386.737 51.6855C387.445 54.0489 386.15 55.1528 384.941 56.8694C380.758 62.8094 378.971 70.4239 376.388 77.3902C370.473 93.3421 367.856 110.167 367.826 127.41C367.81 136.437 367.277 145.143 366.451 154.115C365.564 163.77 364.394 173.982 361.88 183.271C364.402 183.93 367.138 182.947 367.822 186.367C367.991 187.207 367.687 188.201 367.873 189.294C368.053 190.357 368.488 191.414 368.745 192.459C369.277 194.621 369.558 196.754 369.817 198.975C370.817 207.555 372.533 215.715 372.716 224.415C372.884 232.456 371.535 240.603 370.291 248.49C369.039 256.434 365.446 263.205 362.618 270.389C363.836 270.389 365.053 270.404 366.27 270.418Z" fill="#66574B"/>
<path fill-rule="evenodd" clip-rule="evenodd" d="M206.202 252.158C204.861 252.6 198.386 253.435 198.387 255.806C198.388 257.228 204.854 257.2 205.999 257.354C206.067 255.622 206.135 253.89 206.202 252.158ZM220.495 268.516C224.227 269.343 229.292 268.179 231.677 264.341C232.792 262.548 233.321 259.821 233.684 257.68C234.031 255.641 235.1 250.552 234.372 248.64C233.479 246.292 224.905 248.746 222.408 249.015C218.053 249.484 213.548 249.539 209.19 249.208C209.19 254.458 208.959 259.576 211.606 264.095C213.516 267.356 217.103 268.125 220.495 268.516ZM219.745 275.001C215.691 273.27 211.434 274.395 208.794 269.317C208.124 268.029 207.56 266.643 207.155 265.212C206.957 264.585 206.803 263.943 206.693 263.286C206.9 261.87 206.455 261.471 205.36 262.088C203.211 261.601 200.855 263.322 198.591 262.814C193.101 261.584 194.098 252.409 197.783 249.233C198.51 248.605 199.237 248.431 200.071 248.12C201.907 247.438 202.901 248.2 204.581 248.007C205.938 247.85 206.312 246.189 207.771 245.458C208.726 244.979 210.052 245.016 211.056 244.968C216.311 244.716 221.583 244.718 226.871 244.319C229.338 244.133 232.001 244.588 234.418 244.097C235.549 243.866 235.387 242.988 236.458 243.758C237.567 244.556 237.088 247.507 237.032 248.684C236.708 255.489 236.361 262.786 233.237 268.735C230.378 274.178 224.753 274.735 219.745 275.001Z" fill="#66574B"/>
<path fill-rule="evenodd" clip-rule="evenodd" d="M5.62305 276.876C6.9275 276.86 8.23155 276.843 9.53154 276.828C8.22547 276.844 6.92426 276.86 5.62305 276.876Z" fill="#66574B"/>
<path fill-rule="evenodd" clip-rule="evenodd" d="M367.834 131.792C367.832 130.331 367.829 128.869 367.826 127.41C367.829 128.873 367.831 130.332 367.834 131.792Z" fill="#66574B"/>
<path fill-rule="evenodd" clip-rule="evenodd" d="M36.017 137.796C36.013 139.22 36.0089 140.644 36.0049 142.064C36.0085 140.639 36.0126 139.217 36.017 137.796Z" fill="#66574B"/>
<path fill-rule="evenodd" clip-rule="evenodd" d="M144.445 275.261C145.483 275.263 146.521 275.265 147.554 275.268C146.514 275.267 145.48 275.264 144.445 275.261Z" fill="#66574B"/>
<path fill-rule="evenodd" clip-rule="evenodd" d="M81.4326 274.971C82.4704 274.975 83.5078 274.979 84.5408 274.983C83.5013 274.98 82.4672 274.975 81.4326 274.971Z" fill="#66574B"/>
<path fill-rule="evenodd" clip-rule="evenodd" d="M308.327 215.831C308.282 216.792 308.236 217.753 308.19 218.712C308.236 217.75 308.282 216.791 308.327 215.831Z" fill="#66574B"/>
<path fill-rule="evenodd" clip-rule="evenodd" d="M366.27 270.418C365.468 270.408 364.666 270.399 363.864 270.389C364.67 269.997 365.472 270.014 366.27 270.418Z" fill="#66574B"/>
<path fill-rule="evenodd" clip-rule="evenodd" d="M295.067 274.674C295.643 274.663 296.219 274.653 296.789 274.642C296.212 274.652 295.64 274.663 295.067 274.674Z" fill="#66574B"/>
<path fill-rule="evenodd" clip-rule="evenodd" d="M367.521 143.653C367.536 142.926 367.55 142.2 367.564 141.476C367.55 142.203 367.536 142.928 367.521 143.653Z" fill="#66574B"/>
<path fill-rule="evenodd" clip-rule="evenodd" d="M313.694 51.7507C313.647 51.0013 313.6 50.2525 313.552 49.505C313.6 50.2548 313.647 51.0028 313.694 51.7507Z" fill="#66574B"/>
<path fill-rule="evenodd" clip-rule="evenodd" d="M367.806 134.654C367.813 133.903 367.821 133.152 367.829 132.404C367.821 133.155 367.813 133.905 367.806 134.654Z" fill="#66574B"/>
<path fill-rule="evenodd" clip-rule="evenodd" d="M186.793 273.743C187.305 273.752 187.817 273.76 188.324 273.768C187.811 273.758 187.302 273.751 186.793 273.743Z" fill="#66574B"/>
<path fill-rule="evenodd" clip-rule="evenodd" d="M318.619 274.967C319.119 274.978 319.62 274.99 320.115 275.002C319.613 274.991 319.116 274.979 318.619 274.967Z" fill="#66574B"/>
<path fill-rule="evenodd" clip-rule="evenodd" d="M372.658 222.154C372.622 221.495 372.586 220.836 372.551 220.179C372.587 220.838 372.623 221.496 372.658 222.154Z" fill="#66574B"/>
<path fill-rule="evenodd" clip-rule="evenodd" d="M363.678 275.608C364.085 275.605 364.492 275.602 364.895 275.601C364.486 275.604 364.082 275.606 363.678 275.608Z" fill="#66574B"/>
<path fill-rule="evenodd" clip-rule="evenodd" d="M308.193 274.997C308.597 274.986 309 274.974 309.399 274.963C308.994 274.975 308.593 274.986 308.193 274.997Z" fill="#66574B"/>
<path fill-rule="evenodd" clip-rule="evenodd" d="M217.547 274.638C217.991 274.635 218.435 274.632 218.874 274.628C218.429 274.631 217.988 274.635 217.547 274.638Z" fill="#66574B"/>
<path fill-rule="evenodd" clip-rule="evenodd" d="M115.181 274.636C115.603 274.64 116.025 274.643 116.442 274.648C116.019 274.645 115.6 274.64 115.181 274.636Z" fill="#66574B"/>
<path fill-rule="evenodd" clip-rule="evenodd" d="M90.2783 274.716C90.7087 274.688 91.1382 274.659 91.5645 274.632C91.133 274.66 90.7058 274.688 90.2783 274.716Z" fill="#66574B"/>
<path fill-rule="evenodd" clip-rule="evenodd" d="M209.501 83.4224C208.861 83.3581 208.22 83.2938 207.58 83.229C208.221 83.2815 208.899 82.839 209.501 83.4224Z" fill="#66574B"/>
<path fill-rule="evenodd" clip-rule="evenodd" d="M372.719 270.702C372.088 270.628 371.457 270.553 370.825 270.479C371.457 270.553 372.088 270.628 372.719 270.702Z" fill="#66574B"/>
<path fill-rule="evenodd" clip-rule="evenodd" d="M328.681 87.9576C328.639 88.603 328.596 89.2488 328.554 89.8922C328.596 89.246 328.639 88.6016 328.681 87.9576Z" fill="#66574B"/>
<path fill-rule="evenodd" clip-rule="evenodd" d="M367.964 114.864C368.007 114.252 368.05 113.641 368.093 113.031C368.05 113.644 368.006 114.254 367.964 114.864Z" fill="#66574B"/>
<path fill-rule="evenodd" clip-rule="evenodd" d="M328.431 97.9683C328.386 98.6127 328.34 99.2566 328.295 99.8986C328.34 99.2537 328.386 98.6108 328.431 97.9683Z" fill="#66574B"/>
<path fill-rule="evenodd" clip-rule="evenodd" d="M367.697 139.561C367.693 138.938 367.689 138.316 367.686 137.695C368.03 138.316 368.016 138.937 367.697 139.561Z" fill="#66574B"/>
<path fill-rule="evenodd" clip-rule="evenodd" d="M308.336 228.978C308.331 229.602 308.326 230.226 308.321 230.848C307.967 230.218 308.038 229.597 308.336 228.978Z" fill="#66574B"/>
<path fill-rule="evenodd" clip-rule="evenodd" d="M348.578 156.774C348.516 156.143 348.454 155.51 348.393 154.881C348.455 155.513 348.516 156.144 348.578 156.774Z" fill="#66574B"/>
<path fill-rule="evenodd" clip-rule="evenodd" d="M15.3663 98.7979C14.9477 99.4432 14.3775 99.0011 13.8799 99.0796C14.3759 98.9855 14.8711 98.8919 15.3663 98.7979Z" fill="#66574B"/>
<path fill-rule="evenodd" clip-rule="evenodd" d="M222.357 244.767C221.828 244.768 221.299 244.768 220.771 244.769C221.3 244.768 221.828 244.767 222.357 244.767Z" fill="#66574B"/>
<path fill-rule="evenodd" clip-rule="evenodd" d="M306.848 101.45C306.897 101.974 306.946 102.499 306.996 103.022C306.946 102.496 306.897 101.973 306.848 101.45Z" fill="#66574B"/>
<path fill-rule="evenodd" clip-rule="evenodd" d="M45.4925 49.3306C44.9608 49.3429 44.4291 49.3552 43.8975 49.3674C44.4235 49.0062 44.9535 48.9018 45.4925 49.3306Z" fill="#66574B"/>
<path fill-rule="evenodd" clip-rule="evenodd" d="M328.416 107.046C328.382 107.596 328.348 108.146 328.313 108.694C328.348 108.144 328.382 107.595 328.416 107.046Z" fill="#66574B"/>
<path fill-rule="evenodd" clip-rule="evenodd" d="M313.837 39.495C313.878 38.9934 313.919 38.4918 313.96 37.993C313.919 38.4956 313.878 38.9953 313.837 39.495Z" fill="#66574B"/>
<path fill-rule="evenodd" clip-rule="evenodd" d="M309.658 37.9235C309.616 38.4676 309.575 39.0123 309.533 39.5545C309.575 39.0094 309.616 38.4662 309.658 37.9235Z" fill="#66574B"/>
<path fill-rule="evenodd" clip-rule="evenodd" d="M78.7183 1.57092C78.1773 1.64751 77.6363 1.7241 77.0957 1.80022C77.6367 1.72363 78.1773 1.64751 78.7183 1.57092Z" fill="#66574B"/>
<path fill-rule="evenodd" clip-rule="evenodd" d="M39.6436 49.7635C39.0885 49.8297 38.5333 49.8959 37.9785 49.9621C38.5337 49.8959 39.0889 49.8297 39.6436 49.7635Z" fill="#66574B"/>
<path fill-rule="evenodd" clip-rule="evenodd" d="M343.867 51.3588C343.901 50.8525 343.935 50.3457 343.968 49.8422C343.935 50.349 343.901 50.8539 343.867 51.3588Z" fill="#66574B"/>
<path fill-rule="evenodd" clip-rule="evenodd" d="M21.4219 134.925C21.7416 134.93 22.0609 134.935 22.3758 134.941C22.0549 134.935 21.7384 134.93 21.4219 134.925Z" fill="#66574B"/>
<path fill-rule="evenodd" clip-rule="evenodd" d="M309.676 197.419C309.644 197.979 309.612 198.54 309.58 199.099C309.612 198.538 309.645 197.978 309.676 197.419Z" fill="#66574B"/>
<path fill-rule="evenodd" clip-rule="evenodd" d="M342.291 88.3014C342.278 87.761 342.265 87.2211 342.252 86.6821C342.266 87.223 342.278 87.762 342.291 88.3014Z" fill="#66574B"/>
<path fill-rule="evenodd" clip-rule="evenodd" d="M92.3361 0.292304C91.843 0.292304 91.3498 0.292776 90.8574 0.292776C91.3506 -0.102463 91.8434 -0.0925348 92.3361 0.292304Z" fill="#66574B"/>
<path fill-rule="evenodd" clip-rule="evenodd" d="M224.002 127.48C223.461 127.496 222.921 127.512 222.382 127.528C222.912 127.09 223.453 127.079 224.002 127.48Z" fill="#66574B"/>
<path fill-rule="evenodd" clip-rule="evenodd" d="M271.207 273.72C271.527 273.728 271.848 273.736 272.164 273.745C271.842 273.738 271.524 273.729 271.207 273.72Z" fill="#66574B"/>
<path fill-rule="evenodd" clip-rule="evenodd" d="M283.266 274.377C283.585 274.364 283.905 274.35 284.22 274.338C283.899 274.351 283.583 274.364 283.266 274.377Z" fill="#66574B"/>
<path fill-rule="evenodd" clip-rule="evenodd" d="M94.5498 274.637C94.8833 274.647 95.2168 274.657 95.5459 274.666C95.2111 274.656 94.8805 274.647 94.5498 274.637Z" fill="#66574B"/>
<path fill-rule="evenodd" clip-rule="evenodd" d="M372.382 215.901C372.334 215.367 372.287 214.832 372.239 214.301C372.287 214.836 372.334 215.369 372.382 215.901Z" fill="#66574B"/>
<path fill-rule="evenodd" clip-rule="evenodd" d="M328.825 125.839C328.863 126.348 328.901 126.857 328.938 127.363C328.901 126.853 328.863 126.346 328.825 125.839Z" fill="#66574B"/>
<path fill-rule="evenodd" clip-rule="evenodd" d="M345.588 117.097C345.536 116.557 345.484 116.017 345.433 115.479C345.484 116.019 345.536 116.558 345.588 117.097Z" fill="#66574B"/>
<path fill-rule="evenodd" clip-rule="evenodd" d="M97.2549 274.958C97.5912 274.952 97.928 274.946 98.2607 274.941C97.9227 274.948 97.5888 274.953 97.2549 274.958Z" fill="#66574B"/>
<path fill-rule="evenodd" clip-rule="evenodd" d="M219.745 275.001C220.073 274.984 220.399 274.966 220.723 274.949C220.395 274.967 220.07 274.984 219.745 275.001Z" fill="#66574B"/>
<path fill-rule="evenodd" clip-rule="evenodd" d="M342.852 77.6724C342.837 77.1254 342.822 76.5784 342.808 76.0323C342.823 76.5798 342.837 77.1259 342.852 77.6724Z" fill="#66574B"/>
<path fill-rule="evenodd" clip-rule="evenodd" d="M65.3623 275.316C65.6905 275.313 66.0184 275.31 66.3422 275.307C66.0123 275.311 65.6877 275.314 65.3623 275.316Z" fill="#66574B"/>
<path fill-rule="evenodd" clip-rule="evenodd" d="M342.714 275.31C343.051 275.314 343.389 275.318 343.722 275.323C343.383 275.319 343.048 275.315 342.714 275.31Z" fill="#66574B"/>
<path fill-rule="evenodd" clip-rule="evenodd" d="M349.998 275.264C350.324 275.291 350.649 275.318 350.971 275.344C350.644 275.317 350.321 275.291 349.998 275.264Z" fill="#66574B"/>
<path fill-rule="evenodd" clip-rule="evenodd" d="M352.94 275.257C353.272 275.268 353.604 275.28 353.931 275.289C353.599 275.277 353.269 275.267 352.94 275.257Z" fill="#66574B"/>
<path fill-rule="evenodd" clip-rule="evenodd" d="M368.045 119.265C368.023 118.727 368.002 118.189 367.98 117.652C368.002 118.191 368.023 118.728 368.045 119.265Z" fill="#66574B"/>
<path fill-rule="evenodd" clip-rule="evenodd" d="M145.437 268.204C146.445 268.143 147.454 268.082 148.463 268.021C147.454 268.082 146.445 268.143 145.437 268.204Z" fill="#66574B"/>
<path fill-rule="evenodd" clip-rule="evenodd" d="M84.5742 72.5718C85.4499 72.6607 86.3256 72.7495 87.2006 72.8375C86.3248 72.7491 85.4495 72.6602 84.5742 72.5718Z" fill="#66574B"/>
<path fill-rule="evenodd" clip-rule="evenodd" d="M331.827 116.99C331.854 117.965 331.882 118.94 331.909 119.912C331.882 118.936 331.854 117.963 331.827 116.99Z" fill="#66574B"/>
<path fill-rule="evenodd" clip-rule="evenodd" d="M349.9 269.871C350.815 269.936 351.728 270.001 352.643 270.065C351.723 270.114 350.789 270.42 349.9 269.871Z" fill="#66574B"/>
<path fill-rule="evenodd" clip-rule="evenodd" d="M344.49 154.559C344.497 153.629 344.504 152.699 344.51 151.771C344.504 152.702 344.497 153.63 344.49 154.559Z" fill="#66574B"/>
<path fill-rule="evenodd" clip-rule="evenodd" d="M342.151 183.776C342.953 183.789 343.756 183.801 344.558 183.814C343.755 183.801 342.953 183.789 342.151 183.776Z" fill="#66574B"/>
<path fill-rule="evenodd" clip-rule="evenodd" d="M140.228 167.428C140.208 168.136 140.188 168.845 140.169 169.55C140.189 168.841 140.209 168.135 140.228 167.428Z" fill="#66574B"/>
<path fill-rule="evenodd" clip-rule="evenodd" d="M355.501 137.418C355.468 138.124 355.435 138.829 355.403 139.53C355.437 138.824 355.469 138.121 355.501 137.418Z" fill="#66574B"/>
<path fill-rule="evenodd" clip-rule="evenodd" d="M338.388 266.733C338.971 266.687 339.555 266.641 340.137 266.597C339.698 267.007 339.257 267.041 338.388 266.733Z" fill="#66574B"/>
<path fill-rule="evenodd" clip-rule="evenodd" d="M334.482 174.543C334.523 175.303 334.563 176.064 334.602 176.821C334.562 176.061 334.523 175.302 334.482 174.543Z" fill="#66574B"/>
<path fill-rule="evenodd" clip-rule="evenodd" d="M116.298 54.5509C116.304 53.8167 116.31 53.0825 116.316 52.3511C116.31 53.0862 116.304 53.8186 116.298 54.5509Z" fill="#66574B"/>
<path fill-rule="evenodd" clip-rule="evenodd" d="M335.188 183.93L337.363 183.875C336.646 184.279 335.921 184.294 335.188 183.93Z" fill="#66574B"/>
<path fill-rule="evenodd" clip-rule="evenodd" d="M355.254 189.349C354.741 189.354 354.228 189.358 353.719 189.365C354.233 189.36 354.744 189.354 355.254 189.349Z" fill="#66574B"/>
<path fill-rule="evenodd" clip-rule="evenodd" d="M167.438 267.025C168.148 267.036 168.858 267.047 169.568 267.058C168.853 267.476 168.142 267.535 167.438 267.025Z" fill="#66574B"/>
<path fill-rule="evenodd" clip-rule="evenodd" d="M332.078 123.251C332.113 124.014 332.149 124.777 332.184 125.538C332.149 124.774 332.113 124.012 332.078 123.251Z" fill="#66574B"/>
<path fill-rule="evenodd" clip-rule="evenodd" d="M102.09 74.3631C102.697 74.0137 103.31 73.9551 103.928 74.3253C103.315 74.338 102.703 74.3508 102.09 74.3631Z" fill="#66574B"/>
<path fill-rule="evenodd" clip-rule="evenodd" d="M312.208 132.062C312.258 132.705 312.309 133.349 312.359 133.991C312.308 133.346 312.258 132.704 312.208 132.062Z" fill="#66574B"/>
<path fill-rule="evenodd" clip-rule="evenodd" d="M363.521 117.043C363.209 116.413 363.22 115.787 363.536 115.166C363.531 115.793 363.526 116.418 363.521 117.043Z" fill="#66574B"/>
<path fill-rule="evenodd" clip-rule="evenodd" d="M332.178 95.1818C332.178 95.8186 332.178 96.4559 332.178 97.0908C332.178 96.4526 332.178 95.8172 332.178 95.1818Z" fill="#66574B"/>
<path fill-rule="evenodd" clip-rule="evenodd" d="M353.952 183.472C354.577 183.249 355.203 182.932 355.825 183.48C355.201 183.478 354.577 183.475 353.952 183.472Z" fill="#66574B"/>
<path fill-rule="evenodd" clip-rule="evenodd" d="M65.6484 267.918C66.2247 267.622 66.7997 267.467 67.3674 267.941C66.794 267.933 66.2214 267.926 65.6484 267.918Z" fill="#66574B"/>
<path fill-rule="evenodd" clip-rule="evenodd" d="M183.516 266.969C184.132 266.656 184.747 266.483 185.355 266.992C184.741 266.984 184.129 266.977 183.516 266.969Z" fill="#66574B"/>
<path fill-rule="evenodd" clip-rule="evenodd" d="M46.3477 173.963C46.3939 174.612 46.4405 175.261 46.4862 175.908C46.4396 175.259 46.3934 174.611 46.3477 173.963Z" fill="#66574B"/>
<path fill-rule="evenodd" clip-rule="evenodd" d="M189.406 136.574C190.012 136.317 190.617 136.183 191.212 136.612C190.61 136.599 190.008 136.587 189.406 136.574Z" fill="#66574B"/>
<path fill-rule="evenodd" clip-rule="evenodd" d="M332.068 155.896C332.102 156.531 332.136 157.165 332.169 157.798C332.135 157.163 332.102 156.53 332.068 155.896Z" fill="#66574B"/>
<path fill-rule="evenodd" clip-rule="evenodd" d="M45.957 98.6471C45.9067 99.1582 45.8565 99.6697 45.8066 100.178C45.8569 99.6659 45.9067 99.1567 45.957 98.6471Z" fill="#66574B"/>
<path fill-rule="evenodd" clip-rule="evenodd" d="M10.8174 246.858C10.7862 247.356 10.7554 247.853 10.7246 248.348C10.7566 247.85 10.787 247.354 10.8174 246.858Z" fill="#66574B"/>
<path fill-rule="evenodd" clip-rule="evenodd" d="M344.76 159.254C344.726 158.74 344.692 158.225 344.658 157.713C344.692 158.229 344.726 158.742 344.76 159.254Z" fill="#66574B"/>
<path fill-rule="evenodd" clip-rule="evenodd" d="M140.024 171.805C140.125 172.179 140.226 172.554 140.327 172.929C139.653 173.119 139.552 172.744 140.024 171.805Z" fill="#66574B"/>
<path fill-rule="evenodd" clip-rule="evenodd" d="M180.527 135.728C181.076 135.725 181.625 135.723 182.173 135.72C181.626 136.023 181.077 136.232 180.527 135.728Z" fill="#66574B"/>
<path fill-rule="evenodd" clip-rule="evenodd" d="M46.6562 177.036C46.6749 177.604 46.6935 178.172 46.7114 178.737C46.6923 178.169 46.6741 177.603 46.6562 177.036Z" fill="#66574B"/>
<path fill-rule="evenodd" clip-rule="evenodd" d="M313.54 183.018C313.559 183.54 313.579 184.063 313.599 184.582C313.58 184.059 313.56 183.538 313.54 183.018Z" fill="#66574B"/>
<path fill-rule="evenodd" clip-rule="evenodd" d="M41.2168 269.176C41.7375 268.772 42.2595 268.807 42.7822 269.169C42.2603 269.171 41.7383 269.174 41.2168 269.176Z" fill="#66574B"/>
<path fill-rule="evenodd" clip-rule="evenodd" d="M54.9287 91.3489C54.9567 91.8822 54.985 92.4159 55.0142 92.9459C54.9863 92.4117 54.9575 91.8803 54.9287 91.3489Z" fill="#66574B"/>
<path fill-rule="evenodd" clip-rule="evenodd" d="M38.5078 269.23C39.0492 269.233 39.5906 269.236 40.1316 269.238C39.5886 269.67 39.0476 269.69 38.5078 269.23Z" fill="#66574B"/>
<path fill-rule="evenodd" clip-rule="evenodd" d="M338.296 82.9774C338.3 82.4356 338.304 81.8943 338.308 81.3539C338.304 81.8962 338.3 82.4365 338.296 82.9774Z" fill="#66574B"/>
<path fill-rule="evenodd" clip-rule="evenodd" d="M89.7451 73.5031C90.263 73.582 90.7809 73.661 91.2984 73.7394C90.7805 73.6605 90.2626 73.582 89.7451 73.5031Z" fill="#66574B"/>
<path fill-rule="evenodd" clip-rule="evenodd" d="M44.0439 120.26C44.0508 120.766 44.0577 121.272 44.0658 121.776C44.0589 121.269 44.0516 120.764 44.0439 120.26Z" fill="#66574B"/>
<path fill-rule="evenodd" clip-rule="evenodd" d="M341.781 120.187C341.753 119.672 341.725 119.157 341.696 118.644C341.725 119.16 341.753 119.674 341.781 120.187Z" fill="#66574B"/>
<path fill-rule="evenodd" clip-rule="evenodd" d="M220.992 268.626C221.631 268.694 222.27 268.761 222.909 268.828C222.27 268.761 221.631 268.694 220.992 268.626Z" fill="#66574B"/>
<path fill-rule="evenodd" clip-rule="evenodd" d="M218.858 249.326C218.512 249.333 218.168 249.339 217.825 249.347C218.172 249.342 218.515 249.334 218.858 249.326Z" fill="#66574B"/>
<path fill-rule="evenodd" clip-rule="evenodd" d="M218.887 268.331C219.422 268.393 219.959 268.454 220.495 268.516C219.959 268.454 219.422 268.393 218.887 268.331Z" fill="#66574B"/>
<path fill-rule="evenodd" clip-rule="evenodd" d="M122.432 226.222C123.13 230.819 117.006 235.315 116.52 228.78C116.343 226.39 117.713 224.71 119.246 223.249C121.423 221.176 122.639 223.161 122.432 226.222Z" fill="#66574B"/>
<path fill-rule="evenodd" clip-rule="evenodd" d="M54.9306 170.133C56.3732 170.822 67.3952 175.012 61.67 177.12C60.1545 177.677 57.8637 177.761 56.5499 176.778C54.9695 175.595 53.3753 172.104 54.9306 170.133Z" fill="#66574B"/>
<path fill-rule="evenodd" clip-rule="evenodd" d="M57.6445 107.876C61.3856 107.369 64.8325 114.538 60.2201 114.305C56.8628 114.136 52.3476 107.876 57.6445 107.876Z" fill="#66574B"/>
<path fill-rule="evenodd" clip-rule="evenodd" d="M71.026 125.453C74.1499 128.633 68.3595 135.75 66.0606 132.996C64.8867 131.589 65.9694 128.558 66.9384 127.381C67.9328 126.173 69.7021 125.946 71.026 125.453Z" fill="#66574B"/>
<path fill-rule="evenodd" clip-rule="evenodd" d="M80.3267 207.89C78.4825 208.232 70.3721 211.324 72.0635 205.708C72.7087 203.566 74.5079 204.202 76.1528 204.3C78.8038 204.458 80.3267 204.31 80.3267 207.89Z" fill="#66574B"/>
<path fill-rule="evenodd" clip-rule="evenodd" d="M74.9846 222.356C77.7455 224.079 73.7097 233.723 71.4214 231.671C68.2464 228.824 72.5889 223.222 74.9846 222.356Z" fill="#66574B"/>
<path fill-rule="evenodd" clip-rule="evenodd" d="M87.0257 214.604C88.3682 213.964 94.6968 221.066 92.2877 223.042C91.0529 224.054 88.7135 222.318 87.9691 221.272C86.5734 219.309 86.447 216.887 87.0257 214.604Z" fill="#66574B"/>
<path fill-rule="evenodd" clip-rule="evenodd" d="M50.5131 156.554C51.8853 156.817 54.2543 156.9 54.343 159.149C54.4208 161.127 52.2962 161.767 50.8005 161.922C49.2484 162.083 47.1939 161.572 47.1643 159.296C47.1331 156.84 50.4645 156.987 50.5131 156.554Z" fill="#66574B"/>
<path fill-rule="evenodd" clip-rule="evenodd" d="M84.3489 254.443C85.8102 255.478 92.6262 259.204 89.7045 261.896C88.6112 262.904 85.2967 260.823 84.5507 259.765C83.6604 258.503 82.7904 255.546 84.3489 254.443Z" fill="#66574B"/>
<path fill-rule="evenodd" clip-rule="evenodd" d="M103.297 227.403C103.086 223.29 109.034 221.653 107.801 227.491C107.453 229.137 107.117 231.636 105.372 231.731C103.311 231.844 103.236 228.998 103.297 227.403Z" fill="#66574B"/>
<path fill-rule="evenodd" clip-rule="evenodd" d="M84.923 155.877C84.9643 158.997 79.8397 161.749 79.8 156.803C79.7647 152.384 85.1142 151.09 84.923 155.877Z" fill="#66574B"/>
<path fill-rule="evenodd" clip-rule="evenodd" d="M81.5393 139.626C82.802 140.1 84.4801 140.345 84.5912 142.217C84.7091 144.197 83.1319 145.079 81.7128 144.968C80.5489 144.877 78.8267 143.872 78.6151 142.399C78.3051 140.236 80.1141 140.095 81.5393 139.626Z" fill="#66574B"/>
<path fill-rule="evenodd" clip-rule="evenodd" d="M58.0587 196.752C58.0372 194.178 62.4599 191.083 63.2745 194.071C63.535 195.027 61.4505 199.314 60.7571 199.635C58.9226 200.484 58.6665 198.504 58.0587 196.752Z" fill="#66574B"/>
<path fill-rule="evenodd" clip-rule="evenodd" d="M94.3009 239.606C92.8064 241.167 88.3233 245.551 88.6585 239.666C88.8724 235.906 94.6952 236.103 94.3009 239.606Z" fill="#66574B"/>
<path fill-rule="evenodd" clip-rule="evenodd" d="M167.342 256.426C167.832 253.952 174.846 258.245 172.505 261.37C171.72 262.419 169.666 261.47 168.876 260.848C167.313 259.617 167.279 258.481 167.342 256.426Z" fill="#66574B"/>
<path fill-rule="evenodd" clip-rule="evenodd" d="M128.263 203.457C128.536 202.354 128.84 200.404 129.742 199.7C131.374 198.426 132.796 200.348 132.796 202.372C132.796 206.15 129.111 207.341 128.263 203.457Z" fill="#66574B"/>
<path fill-rule="evenodd" clip-rule="evenodd" d="M110.88 247.624C112.701 248.111 116.756 253.275 114.404 255.382C112.141 257.41 109.131 249.166 110.88 247.624Z" fill="#66574B"/>
<path fill-rule="evenodd" clip-rule="evenodd" d="M112.614 208.531C114.955 208.749 118.174 213.172 114.534 213.875C111.688 214.426 108.377 209.614 112.614 208.531Z" fill="#66574B"/>
<path fill-rule="evenodd" clip-rule="evenodd" d="M133.811 228.887C134.398 226.579 140.205 229.052 139.879 231.593C139.706 232.943 137.331 233.261 136.083 232.904C134.246 232.378 133.769 230.971 133.811 228.887Z" fill="#66574B"/>
<path fill-rule="evenodd" clip-rule="evenodd" d="M65.3599 100.006C65.402 97.0227 70.3155 95.8067 70.6753 98.8131C71.0007 101.529 65.2983 104.419 65.3599 100.006Z" fill="#66574B"/>
<path fill-rule="evenodd" clip-rule="evenodd" d="M132.188 259.626C132.542 258.126 132.694 256.321 134.3 256.123C136.139 255.897 136.085 257.542 135.869 259.247C135.281 263.885 133.034 264.117 132.188 259.626Z" fill="#66574B"/>
<path fill-rule="evenodd" clip-rule="evenodd" d="M54.5951 135.499C52.0336 136.174 47.3422 130.418 50.2097 129.183C52.2302 128.312 54.5951 133.763 54.5951 135.499Z" fill="#66574B"/>
<path fill-rule="evenodd" clip-rule="evenodd" d="M87.2664 180.207C85.9627 180.923 85.6625 181.358 84.6611 180.182C83.7891 179.159 83.8275 176.307 84.576 175.242C87.4427 171.165 87.3754 178.557 87.2664 180.207Z" fill="#66574B"/>
<path fill-rule="evenodd" clip-rule="evenodd" d="M97.9015 171.938C99.261 172.139 103.301 176.61 101.197 178.387C98.6195 180.563 97.1611 173.745 97.9015 171.938Z" fill="#66574B"/>
<path fill-rule="evenodd" clip-rule="evenodd" d="M127.317 173.115C126.329 177.555 123.862 174.567 124.002 171.208C124.226 165.826 126.783 170.513 127.317 173.115Z" fill="#66574B"/>
<path fill-rule="evenodd" clip-rule="evenodd" d="M142.316 244.421C143.988 245.228 146.257 252.685 143.869 253.085C141.187 253.534 142.08 245.974 142.316 244.421Z" fill="#66574B"/>
<path fill-rule="evenodd" clip-rule="evenodd" d="M121.435 240.232C123.348 239.479 124.049 244.187 122.937 245.062C120.491 246.986 121.007 241.343 121.435 240.232Z" fill="#66574B"/>
<path fill-rule="evenodd" clip-rule="evenodd" d="M103.298 227.403C103.274 228.028 103.25 228.653 103.225 229.274C103.249 228.648 103.273 228.026 103.298 227.403Z" fill="#66574B"/>
<path fill-rule="evenodd" clip-rule="evenodd" d="M167.342 256.426C167.322 257.067 167.302 257.708 167.281 258.346C167.3 257.704 167.321 257.065 167.342 256.426Z" fill="#66574B"/>
<path fill-rule="evenodd" clip-rule="evenodd" d="M133.811 228.887C133.801 229.431 133.79 229.974 133.777 230.515C133.788 229.97 133.8 229.428 133.811 228.887Z" fill="#66574B"/>
<path fill-rule="evenodd" clip-rule="evenodd" d="M345.424 219.53C349.391 219.382 353.815 217.64 357.713 218.194C358.786 218.347 361.256 218.662 359.537 220.519C358.715 221.407 354.779 220.948 353.587 221.242C346.305 223.041 338.038 224.201 330.571 224.052C327.075 223.982 323.554 223.655 320.06 223.439C316.568 223.224 316.225 221.568 320.154 221.042C324.234 220.495 328.421 220.698 332.521 220.692C336.832 220.686 341.122 219.866 345.424 219.53Z" fill="#66574B"/>
<path fill-rule="evenodd" clip-rule="evenodd" d="M354.131 208.381C353.749 209.649 353.414 212.56 351.951 212.751C349.902 213.018 349.563 208.914 349.638 207.413C349.73 205.601 350.289 202.591 352.219 203.219C353.849 203.749 354.012 206.931 354.131 208.381Z" fill="#66574B"/>
<path fill-rule="evenodd" clip-rule="evenodd" d="M341.728 207.453C342.027 206.095 342.174 203.033 343.82 202.929C345.66 202.814 346.186 206.003 346.173 207.532C346.161 208.983 345.701 211.723 344.236 212.059C342.25 212.513 342.073 209.004 341.728 207.453Z" fill="#66574B"/>
<path fill-rule="evenodd" clip-rule="evenodd" d="M321.07 209.889C320.474 211.521 320.08 213.769 318.235 212.656C316.809 211.795 316.61 208.325 316.879 206.736C317.158 205.09 317.748 203.201 319.369 203.942C321.239 204.796 321.05 208.092 321.07 209.889Z" fill="#66574B"/>
<path fill-rule="evenodd" clip-rule="evenodd" d="M336.713 208.381C334.955 214.6 331.748 210.393 332.966 205.75C334.239 200.897 336.551 205.61 336.713 208.381Z" fill="#66574B"/>
<path fill-rule="evenodd" clip-rule="evenodd" d="M328.146 208.689C327.657 209.784 327.138 212.146 325.822 211.897C324.208 211.592 324.156 207.969 324.333 206.62C324.488 205.439 324.942 203.471 326.293 203.496C328.245 203.533 328.114 207.272 328.146 208.689Z" fill="#66574B"/>
<path fill-rule="evenodd" clip-rule="evenodd" d="M363.221 209.883C361.912 213.309 360.111 210.358 360.688 207.924C361.542 204.316 363.147 207.513 363.221 209.883Z" fill="#66574B"/>
<path fill-rule="evenodd" clip-rule="evenodd" d="M331.165 220.697C329.735 220.69 328.305 220.684 326.876 220.678C328.306 220.363 329.737 220.241 331.165 220.697Z" fill="#66574B"/>
<path fill-rule="evenodd" clip-rule="evenodd" d="M359.572 218.18C358.332 218.19 357.093 218.199 355.854 218.208C357.091 217.775 358.331 217.766 359.572 218.18Z" fill="#66574B"/>
<path fill-rule="evenodd" clip-rule="evenodd" d="M321.07 209.889C321.061 209.057 321.051 208.226 321.043 207.397C321.41 208.224 321.384 209.054 321.07 209.889Z" fill="#66574B"/>
<path fill-rule="evenodd" clip-rule="evenodd" d="M328.849 224.034C329.424 224.04 329.999 224.046 330.57 224.052C329.993 224.046 329.421 224.04 328.849 224.034Z" fill="#66574B"/>
<path fill-rule="evenodd" clip-rule="evenodd" d="M319.186 223.439C319.768 223.439 320.351 223.439 320.93 223.439C320.345 223.439 319.765 223.439 319.186 223.439Z" fill="#66574B"/>
<path fill-rule="evenodd" clip-rule="evenodd" d="M323.964 220.769C323.154 220.846 322.343 220.924 321.533 221.001C322.344 220.924 323.154 220.846 323.964 220.769Z" fill="#66574B"/>
<path fill-rule="evenodd" clip-rule="evenodd" d="M334.921 220.686C334.121 220.688 333.321 220.69 332.521 220.692C333.32 220.299 334.12 220.287 334.921 220.686Z" fill="#66574B"/>
<path fill-rule="evenodd" clip-rule="evenodd" d="M328.147 208.689C328.127 207.823 328.108 206.957 328.089 206.092C328.109 206.958 328.128 207.824 328.147 208.689Z" fill="#66574B"/>
<path fill-rule="evenodd" clip-rule="evenodd" d="M316.879 206.736C316.874 207.58 316.87 208.425 316.864 209.267C316.869 208.421 316.874 207.579 316.879 206.736Z" fill="#66574B"/>
<path fill-rule="evenodd" clip-rule="evenodd" d="M349.971 219.216C349.263 219.291 348.556 219.365 347.85 219.44C348.557 219.365 349.264 219.291 349.971 219.216Z" fill="#66574B"/>
<path fill-rule="evenodd" clip-rule="evenodd" d="M363.22 209.883C363.197 209.145 363.174 208.407 363.151 207.67C363.174 208.408 363.197 209.145 363.22 209.883Z" fill="#66574B"/>
<path fill-rule="evenodd" clip-rule="evenodd" d="M333.124 224.059C333.616 224.048 334.109 224.037 334.596 224.027C334.102 224.038 333.613 224.049 333.124 224.059Z" fill="#66574B"/>
<path fill-rule="evenodd" clip-rule="evenodd" d="M354.132 208.381C354.088 207.851 354.045 207.32 354.002 206.791C354.045 207.323 354.089 207.852 354.132 208.381Z" fill="#66574B"/>
<path fill-rule="evenodd" clip-rule="evenodd" d="M336.713 208.381C336.682 207.837 336.65 207.292 336.618 206.748C336.65 207.294 336.682 207.838 336.713 208.381Z" fill="#66574B"/>
<path fill-rule="evenodd" clip-rule="evenodd" d="M82.7785 48.3331C80.8419 47.7402 80.4788 44.5651 80.7901 42.6149C81.143 41.675 81.496 40.7356 81.8489 39.7957C81.7108 39.4482 81.573 39.1008 81.4352 38.7533C81.6123 36.8177 81.1596 35.9767 83.0663 36.7605C86.608 38.2176 87.1741 48.1837 82.7785 48.3331Z" fill="#66574B"/>
<path fill-rule="evenodd" clip-rule="evenodd" d="M111.446 42.1941C113.042 42.0475 115.94 44.2152 114.352 46.3124C113.368 47.6116 110.125 46.997 108.803 47.2683C107.048 47.6281 105.219 48.1203 106.168 45.0548C106.913 42.6474 109.575 42.1312 111.446 42.1941Z" fill="#66574B"/>
<path fill-rule="evenodd" clip-rule="evenodd" d="M109.767 56.6127C108.147 55.0965 108.87 48.1907 111.336 49.4332C113.874 50.712 111.12 55.6161 109.767 56.6127Z" fill="#66574B"/>
<path fill-rule="evenodd" clip-rule="evenodd" d="M80.79 42.6147C80.79 43.3414 80.7896 44.0685 80.7884 44.7919C80.4504 44.0638 80.461 43.339 80.79 42.6147Z" fill="#66574B"/>
<path fill-rule="evenodd" clip-rule="evenodd" d="M82.7783 48.3331C83.1086 48.3222 83.4393 48.3108 83.7655 48.3009C83.4336 48.3132 83.1062 48.3231 82.7783 48.3331Z" fill="#66574B"/>
<path fill-rule="evenodd" clip-rule="evenodd" d="M282.877 247.214C282.725 250.355 279.834 248.033 280.039 245.931C280.411 242.118 282.259 245.886 282.877 247.214Z" fill="#66574B"/>
</svg>
