<svg width="25" height="25" viewBox="0 0 25 25" fill="none" xmlns="http://www.w3.org/2000/svg">
<path fill-rule="evenodd" clip-rule="evenodd" d="M7.7 0.5H17.3C21.2765 0.5 24.5 3.72355 24.5 7.7V17.3C24.5 21.2765 21.2765 24.5 17.3 24.5H7.7C3.72355 24.5 0.5 21.2765 0.5 17.3V7.7C0.5 3.72355 3.72355 0.5 7.7 0.5ZM7.7 2.9C5.04903 2.9 2.9 5.04903 2.9 7.7V17.3C2.9 19.951 5.04903 22.1 7.7 22.1H17.3C19.951 22.1 22.1 19.951 22.1 17.3V7.7C22.1 5.04903 19.951 2.9 17.3 2.9H7.7ZM12.5 18.5C9.18629 18.5 6.5 15.8137 6.5 12.5C6.5 9.18629 9.18629 6.5 12.5 6.5C15.8137 6.5 18.5 9.18629 18.5 12.5C18.5 15.8137 15.8137 18.5 12.5 18.5ZM12.5 16.1C14.4882 16.1 16.1 14.4882 16.1 12.5C16.1 10.5118 14.4882 8.9 12.5 8.9C10.5118 8.9 8.9 10.5118 8.9 12.5C8.9 14.4882 10.5118 16.1 12.5 16.1ZM18.5 7.7C17.8373 7.7 17.3 7.16274 17.3 6.5C17.3 5.83726 17.8373 5.3 18.5 5.3C19.1627 5.3 19.7 5.83726 19.7 6.5C19.7 7.16274 19.1627 7.7 18.5 7.7Z" fill="#FF7A00"/>
</svg>
