<svg width="25" height="25" viewBox="0 0 25 25" fill="none" xmlns="http://www.w3.org/2000/svg">
<path d="M21.6429 0.5H3.35714C1.78 0.5 0.5 1.78 0.5 3.35714V21.6429C0.5 23.22 1.78 24.5 3.35714 24.5H21.6429C23.22 24.5 24.5 23.22 24.5 21.6429V3.35714C24.5 1.78 23.22 0.5 21.6429 0.5ZM7.92857 9.64286V20.5H4.5V9.64286H7.92857ZM4.5 6.48286C4.5 5.68286 5.18571 5.07143 6.21429 5.07143C7.24286 5.07143 7.88857 5.68286 7.92857 6.48286C7.92857 7.28286 7.28857 7.92857 6.21429 7.92857C5.18571 7.92857 4.5 7.28286 4.5 6.48286ZM20.5 20.5H17.0714C17.0714 20.5 17.0714 15.2086 17.0714 14.7857C17.0714 13.6429 16.5 12.5 15.0714 12.4771H15.0257C13.6429 12.4771 13.0714 13.6543 13.0714 14.7857C13.0714 15.3057 13.0714 20.5 13.0714 20.5H9.64286V9.64286H13.0714V11.1057C13.0714 11.1057 14.1743 9.64286 16.3914 9.64286C18.66 9.64286 20.5 11.2029 20.5 14.3629V20.5Z" fill="#FF7A00"/>
</svg>
