<svg width="194" height="40" viewBox="0 0 194 40" fill="none" xmlns="http://www.w3.org/2000/svg">
<path d="M57.0565 31.4837C49.4154 31.4837 41.897 31.4886 34.3786 31.4822C28.2825 31.477 23.6979 27.2212 23.3161 21.229C22.9729 15.842 27.2618 11.0183 33.0388 10.3045C33.4421 10.2547 33.8537 10.2553 34.2614 10.2553C48.8079 10.2529 63.3544 10.2505 77.9009 10.2548C83.3746 10.2563 88.0812 14.2113 88.712 19.321C89.4084 24.9617 86.0828 29.8216 80.5565 31.1554C79.6173 31.382 78.621 31.4662 77.6505 31.4699C70.8268 31.496 64.003 31.4837 57.0565 31.4837ZM28.0538 21.7695C28.6288 24.8779 31.0238 26.9645 34.2887 26.9719C48.8015 27.0048 63.3144 27.006 77.8271 26.9722C81.4391 26.9638 84.2489 24.1967 84.2344 20.8582C84.2196 17.4671 81.342 14.7863 77.6752 14.7847C63.2851 14.7782 48.8949 14.7781 34.5048 14.7846C30.4586 14.7864 27.7599 17.6186 28.0538 21.7695Z" fill="#FF900E"/>
<path d="M151.9 10.7651C153.176 11.4767 154.361 12.1545 155.581 12.8522C155.581 8.71261 155.581 4.428 155.581 0.0759277C157.241 0.0759277 158.772 0.0759277 160.343 0.0759277C160.343 10.5263 160.343 20.9233 160.343 31.3978C158.987 31.3978 157.656 31.3978 156.186 31.3978C156.103 30.5736 156.015 29.6993 155.908 28.6372C154.215 30.4396 152.318 31.5407 150.015 31.8268C144.621 32.4968 140.286 29.5716 138.935 24.4016C138.109 21.2419 138.489 18.2132 140.004 15.3296C142.207 11.1336 146.635 9.42496 151.9 10.7651ZM154.34 16.4746C151.111 12.5055 146.096 13.0694 143.935 17.6854C142.714 20.2922 142.848 22.9074 144.354 25.3761C146.887 29.5268 152.257 29.4745 154.674 25.2582C156.329 22.3697 156.198 19.4572 154.34 16.4746Z" fill="#66574B"/>
<path d="M0.500004 28.7013C0.500007 19.1079 0.500007 9.63318 0.500007 0.0808105C2.12109 0.0808105 3.65007 0.0808105 5.29123 0.0808105C5.29123 4.27317 5.29123 8.44827 5.29123 12.89C6.94227 11.2582 8.73774 10.4022 10.8071 10.2331C15.093 9.88305 18.5229 12.6215 19.0085 16.8901C19.2291 18.8285 19.1435 20.8026 19.1576 22.7607C19.178 25.5996 19.1628 28.4388 19.1628 31.3784C17.5939 31.3784 16.0712 31.3784 14.4053 31.3784C14.4053 30.952 14.4062 30.5277 14.4052 30.1034C14.3956 26.383 14.4416 22.6613 14.3581 18.9425C14.2928 16.0312 12.5146 14.4444 9.60845 14.5059C7.03518 14.5604 5.30742 16.4209 5.29952 19.1829C5.28797 23.2222 5.29655 27.2614 5.29655 31.3898C3.72845 31.3898 2.2035 31.3898 0.5 31.3898C0.5 30.5461 0.5 29.683 0.500004 28.7013Z" fill="#66574B"/>
<path d="M180.732 19.3554C183.534 18.6128 184.711 18.7286 188.762 20.1133C189.092 16.2429 186.882 14.0976 183.069 14.7721C181.455 15.0576 179.912 15.7249 178.194 16.2636C177.73 15.3683 177.148 14.2439 176.515 13.0202C179.564 11.0414 182.871 10.2469 186.474 10.5644C186.961 10.6073 187.449 10.6736 187.926 10.7766C191.24 11.4922 193.275 13.4909 193.403 16.8047C193.589 21.6305 193.451 26.4684 193.451 31.3893C192.152 31.3893 190.783 31.3893 189.331 31.3893C189.279 30.8164 189.223 30.2004 189.152 29.4237C188.73 29.7626 188.425 30.0039 188.124 30.251C185.313 32.5587 180.202 32.5229 177.449 30.1752C174.62 27.7616 174.843 22.84 177.93 20.7327C178.753 20.1707 179.73 19.824 180.732 19.3554ZM187.895 27.2228C189.304 25.5349 189.015 23.9298 187.066 22.901C185.332 21.9853 183.561 21.99 181.816 22.9023C180.825 23.4208 180.115 24.1841 180.112 25.3379C180.109 26.4897 180.8 27.2731 181.799 27.781C183.869 28.8333 185.864 28.6945 187.895 27.2228Z" fill="#66574B"/>
<path d="M98.7006 19.2797C101.437 18.5975 103.968 18.8404 106.359 20.2038C106.999 16.7792 104.513 14.1008 101.167 14.6929C99.3937 15.0067 97.6856 15.6715 95.7956 16.2223C95.3486 15.352 94.7717 14.2287 94.2021 13.1198C97.3524 10.4695 103.95 9.67156 107.573 11.4551C109.748 12.5254 110.881 14.3418 111.005 16.6194C111.199 20.1665 111.178 23.7251 111.234 27.279C111.255 28.6317 111.237 29.985 111.237 31.4063C109.781 31.4063 108.41 31.4063 106.941 31.4063C106.898 30.7667 106.857 30.1465 106.807 29.4046C106.612 29.545 106.458 29.6341 106.33 29.7508C103.717 32.1404 99.4602 32.6684 96.3285 30.9877C92.1183 28.7282 91.9456 22.864 96.0456 20.4121C96.834 19.9406 97.7478 19.6701 98.7006 19.2797ZM98.9353 27.4758C100.886 28.7495 102.914 28.8325 104.917 27.6793C106.929 26.5209 106.941 24.2231 104.95 23.0375C103.143 21.961 101.238 21.9145 99.3849 22.9449C97.4243 24.0347 97.2191 25.7365 98.9353 27.4758Z" fill="#66574B"/>
<path d="M129.117 16.8717C127.949 14.9009 126.219 14.1433 123.997 14.5625C122.095 14.9214 120.645 16.4217 120.571 18.5463C120.44 22.3401 120.499 26.1403 120.48 29.9378C120.478 30.4086 120.48 30.8795 120.48 31.4109C118.832 31.4109 117.302 31.4109 115.729 31.4109C115.729 24.3739 115.729 17.3866 115.729 10.3267C117.116 10.3267 118.481 10.3267 119.985 10.3267C120.029 11.148 120.074 11.9651 120.127 12.9624C121.842 11.3102 123.813 10.4435 126.048 10.2678C130.516 9.91652 134.082 12.8857 134.279 17.4241C134.479 22.0492 134.323 26.6891 134.323 31.3993C132.788 31.3993 131.266 31.3993 129.629 31.3993C129.629 27.9149 129.672 24.4438 129.608 20.9746C129.583 19.6334 129.317 18.2963 129.117 16.8717Z" fill="#66574B"/>
<path d="M166.185 12.39C166.185 11.639 166.185 11.0065 166.185 10.3169C167.86 10.3169 169.435 10.3169 171.101 10.3169C171.126 10.6232 171.173 10.9269 171.173 11.2307C171.177 18.3536 171.183 25.4764 171.166 32.5993C171.164 33.3522 171.091 34.1193 170.931 34.8549C170.261 37.9426 168.095 39.7588 164.862 39.9788C164.218 40.0226 163.568 39.9851 162.856 39.9851C162.856 38.5138 162.856 37.0902 162.856 35.6632C165.576 35.2366 166.178 34.5452 166.182 31.7163C166.192 25.3137 166.185 18.9112 166.185 12.39Z" fill="#66574B"/>
<path d="M165.46 2.87218C165.891 0.867289 167.305 -0.204218 169.1 0.0323773C170.795 0.255917 172.007 1.71902 171.889 3.39996C171.774 5.04864 170.32 6.35732 168.624 6.33911C166.765 6.31915 165.555 5.03121 165.46 2.87218Z" fill="#66574B"/>
</svg>
