<svg width="28" height="29" viewBox="0 0 28 29" fill="none" xmlns="http://www.w3.org/2000/svg">
<path d="M27.3166 24.5173L21.3934 18.594C22.6172 16.7495 23.3336 14.541 23.3336 12.1668C23.3336 5.73372 18.0999 0.5 11.6668 0.5C5.23372 0.5 0 5.73372 0 12.1668C0 18.5999 5.23372 23.8336 11.6668 23.8336C14.041 23.8336 16.2495 23.1172 18.094 21.8934L24.0173 27.8166C24.9273 28.7278 26.4066 28.7278 27.3166 27.8166C28.2278 26.9054 28.2278 25.4284 27.3166 24.5173ZM3.50004 12.1668C3.50004 7.66341 7.16341 4.00004 11.6668 4.00004C16.1702 4.00004 19.8335 7.66341 19.8335 12.1668C19.8335 16.6702 16.1702 20.3335 11.6668 20.3335C7.16341 20.3335 3.50004 16.6702 3.50004 12.1668Z" fill="#48433C"/>
</svg>
